M48
;Layer_Color=9474304
;FILE_FORMAT=2:5
INCH,LZ
;TYPE=PLATED
T1F00S00C0.01575
T2F00S00C0.03150
T3F00S00C0.03543
T4F00S00C0.10039
%
T01
X0212598Y0042815
X0208071Y0048622
X0208884Y005705
X0213976Y0060335
X0204921Y008248
X0209055Y0096949
X0204668Y0103168
X0200468Y0099068
X0199268Y0107369
X0209968
X025374Y0104134
X0250394Y006624
X0192618Y0060433
X0187205Y0048819
X0187106Y0038091
X017126Y004311
X0160132Y0024068
X0150295Y0024016
X0129626Y0024213
X0119523Y0024241
X012815Y0012008
X0108169Y0040453
X0097441Y0043307
X0085532Y00375
X0082382Y0048917
X0071752Y0052264
X0071752Y003563
X0061319Y0029823
X0053543
X0045472
X0045Y0021457
X0044783Y0012894
X0053445
X0061713
X0061909Y0021457
X0054035
X0071973Y0017768
X008248Y0007382
X0109449Y0073819
X0120965Y0088878
X0122146Y0109449
X0140256Y0108268
X015Y0108465
X015561Y0106201
X0159547Y0099803
X0167126Y010315
X0167368Y0112568
X016998Y0118701
X0168602Y0093701
X0173031Y0078347
X0153347Y0073425
X0149803Y0084153
X0135827Y0100591
X009124Y0098327
X0085969Y0106069
X010315Y0117126
X0051181Y0119291
X0188268Y0096368
X002185Y0095965
X0024508Y0092224
X0018012Y0088878
X0020571Y0084449
X0027468Y0080769
X0032168Y0075169
X0029528Y0067323
X0029626Y0060925
X0029724Y0054921
X0018307Y0054035
X0007972
X0008661Y0062402
X0009843Y0081102
X0010335Y0097342
X0005315Y009439
X0007185Y0117269
X0013189Y0118405
X001811Y0034941
X0008169Y0034843
X0008568Y0026469
X0021468Y0027169
X0028051Y0029823
X0036122
X0036319Y0021457
X002815
X0028346Y0012894
X0036024
X0018012Y0122146
X0007087Y0139173
Y0157972
X0017028Y0153543
X0025823Y014306
X0038234Y015144
X0037402Y0166043
X0022967Y0177469
X0028368Y0184869
X0015168Y0182768
X0007969Y0186268
X0007869Y0199268
X0009769Y0206968
X0008868Y0218669
X0012697Y0225295
X0009941Y0233268
X0024803Y023002
X0024902Y0237106
X0030236Y0233829
X0033848Y0230217
X0041073
X0037461Y0233829
X0041073Y0237441
X0033848
X0030217Y0242618
X0037598
X0037461Y0226604
X0041073Y0222992
X0033848
X0030236Y0226604
X0030217Y0217815
X0037402Y0217717
X0025098Y0222835
X0017768Y0213069
X0021269Y0201869
X0033957Y0202067
X0024114Y0250295
X0007933Y0253209
Y0265886
X0020571Y0271457
X0042042Y0271767
X0048425Y0268504
X0056595
X0065945Y0271654
X0070169Y0248768
X0083368Y0248868
X0092126Y0249409
X0098228
X0097244Y0238779
X0103937Y0234449
X0109055Y0228346
X0099114Y0224213
X0087669Y0228368
X0087269Y0237368
X0066568
X0049902Y0237205
X0050197Y0230217
X0050295Y0223031
X0044685Y0226604
Y0233829
X0044783Y0242421
X0047244Y0250984
X0055905Y0250787
X0044783Y021752
X0047269Y0201368
X0044668Y0181468
X0052868Y0184169
X0066339Y0183858
X0085205Y0183268
X0089961Y0183957
X0097638Y0188883
X0109449Y0188583
X0107776Y0181299
X0121949Y0186122
X0125295Y0192913
X0128937Y0199669
X0119685Y0199705
X0112068Y0198669
X0143569Y0194269
X0146752Y0187697
X0152461Y0187598
X0152559Y0176378
X0141043Y0176279
X014498Y0164272
X0147736Y0160335
X0149803Y0155709
X0152461Y0152461
X0157185Y0151478
X0154077Y0145569
X0152665Y0141739
X0154043Y013229
X0141368Y0127969
X0135039Y0129528
X0122835Y0123622
X0110369Y0123773
X01Y0123327
X0093968Y0135869
X0108563Y0146457
X0111221Y0158858
X0121457Y0162303
X0121069Y0170268
X015187Y0163484
X0156693Y0165157
X0167502Y0152738
X016843Y0148007
X0174606Y0144587
X0165256Y0139862
X0142868Y0148353
X0176083Y016939
X0184569Y0166469
X0195668Y0166168
X0196063Y0193012
X0184252Y0193405
X0176117Y0193765
X0175068Y0202468
X0170669Y0206004
X0183369Y0206569
X0196091Y0206327
X0195965Y0217126
X018937Y0227362
X0176969Y0226772
X0172835Y0235039
X0183465Y0235728
X0174606Y0245374
X0192224Y024685
X0190059Y0199213
X0157382Y0207874
X0152756Y0208169
X0141831Y0217913
X0131869Y0218969
X0133465Y0234252
X0142569Y0236869
X014498Y025
X0139272Y0266437
X0129569Y0260268
X0122933Y0270768
X0120069Y0244369
X0119869Y0236668
X0109669Y0247868
X0155788Y0233287
X0066568Y0215968
X0065168Y0206368
X0075787Y0164173
X0080315Y0167224
X0092323Y0161122
X0070965Y0150492
X0056988Y015876
X0049311Y0136024
X0184252Y0125591
X0191831Y0124705
X0220177Y0128347
X0226181Y0129626
X023061Y0127461
X0230413Y0137106
X0237205Y0131791
X0235302Y0144957
X0235138Y0152655
X0246555Y0152461
X024685Y0144882
X0244094Y0121457
X0213268Y0137369
X0212568Y0147569
X0210268Y0151368
X0204869Y0156769
X0199469Y0151769
X0206068Y0167868
X0208569Y0173468
X0208869Y0185268
X0207283Y0198425
X020374Y0206102
X0203642Y0217224
X0205315Y0227362
X0200886Y023563
X0205512Y0251181
X0223622Y0268799
X0239567Y0259252
X0258465Y0238779
X0258858Y021811
X0260039Y0203937
X0248031Y0206693
X0259941Y0168504
X0233366Y0167224
X021998Y0145669
T02
X0166339Y0213779
T03
X0062077Y0094314
Y0104314
Y0114314
X0102854Y0099803
Y0089803
X0062077Y0124314
X0058701Y017687
X0068701
X0176339Y0213779
X0216673Y0216024
Y0226024
Y0236024
Y0246024
Y0256024
X0226673
Y0246024
Y0236024
Y0226024
Y0216024
X0245965Y0195039
Y0185039
Y0175039
T04
X02625Y0020669
X0096457
X0081201Y0077559
X0012106Y0166339
X0161417Y0259842
X0259842
X02625Y0150886
M30
