G04*
G04 #@! TF.GenerationSoftware,Altium Limited,Altium Designer,19.1.6 (110)*
G04*
G04 Layer_Color=8421504*
%FSLAX25Y25*%
%MOIN*%
G70*
G01*
G75*
%ADD13R,0.05118X0.05906*%
%ADD14R,0.05906X0.05118*%
%ADD15C,0.03937*%
D13*
X240551Y206299D02*
D03*
X233071D02*
D03*
X237008Y104921D02*
D03*
X244488D02*
D03*
X40650Y251083D02*
D03*
X33169D02*
D03*
X244488Y115551D02*
D03*
X237008D02*
D03*
X235209Y195468D02*
D03*
X227728D02*
D03*
X235138Y184843D02*
D03*
X227658D02*
D03*
X57528Y164068D02*
D03*
X65009D02*
D03*
X10138Y238287D02*
D03*
X17618D02*
D03*
X37598Y175689D02*
D03*
X45079D02*
D03*
X89272Y146555D02*
D03*
X81791D02*
D03*
X154429Y100098D02*
D03*
X146949D02*
D03*
X195909Y235869D02*
D03*
X188428D02*
D03*
X95428Y182369D02*
D03*
X102909D02*
D03*
X203609Y211418D02*
D03*
X196128D02*
D03*
D14*
X164469Y126009D02*
D03*
Y118528D02*
D03*
X176870Y125984D02*
D03*
Y118504D02*
D03*
X42717Y164075D02*
D03*
Y156595D02*
D03*
X85969Y110628D02*
D03*
Y118109D02*
D03*
X228248Y167323D02*
D03*
Y174803D02*
D03*
X152461Y203346D02*
D03*
Y195866D02*
D03*
X121161Y101476D02*
D03*
Y93996D02*
D03*
X99068Y212508D02*
D03*
Y205028D02*
D03*
X87968Y212508D02*
D03*
Y205028D02*
D03*
X130668Y212508D02*
D03*
Y205028D02*
D03*
X120268Y212508D02*
D03*
Y205028D02*
D03*
X109869Y212508D02*
D03*
Y205028D02*
D03*
X125568Y244209D02*
D03*
Y236728D02*
D03*
X142569Y230809D02*
D03*
Y223328D02*
D03*
X71768Y22428D02*
D03*
Y29909D02*
D03*
X153543Y125984D02*
D03*
Y118504D02*
D03*
D15*
X267717Y267717D02*
D03*
X11811Y11811D02*
D03*
M02*
