G04*
G04 #@! TF.GenerationSoftware,Altium Limited,Altium Designer,19.1.6 (110)*
G04*
G04 Layer_Color=16711935*
%FSLAX25Y25*%
%MOIN*%
G70*
G01*
G75*
%ADD15C,0.03937*%
%ADD16R,0.05906X0.06693*%
%ADD17R,0.06693X0.05906*%
%ADD18C,0.07874*%
%ADD19R,0.06693X0.06693*%
%ADD20C,0.06693*%
%ADD21R,0.06693X0.06693*%
%ADD22C,0.07287*%
%ADD23C,0.10827*%
%ADD52R,0.06844X0.09500*%
%ADD53R,0.03850X0.02200*%
%ADD57R,0.05100X0.06100*%
%ADD61R,0.06300X0.04400*%
%ADD62R,0.01200X0.04700*%
%ADD63R,0.04700X0.01200*%
%ADD64R,0.06100X0.05100*%
%ADD73R,0.05787X0.03780*%
%ADD74R,0.03937X0.03937*%
G04:AMPARAMS|DCode=75|XSize=88.98mil|YSize=87.4mil|CornerRadius=13.88mil|HoleSize=0mil|Usage=FLASHONLY|Rotation=0.000|XOffset=0mil|YOffset=0mil|HoleType=Round|Shape=RoundedRectangle|*
%AMROUNDEDRECTD75*
21,1,0.08898,0.05965,0,0,0.0*
21,1,0.06122,0.08740,0,0,0.0*
1,1,0.02776,0.03061,-0.02982*
1,1,0.02776,-0.03061,-0.02982*
1,1,0.02776,-0.03061,0.02982*
1,1,0.02776,0.03061,0.02982*
%
%ADD75ROUNDEDRECTD75*%
%ADD76R,0.08521X0.02559*%
%ADD77R,0.07890X0.06898*%
%ADD78R,0.08268X0.07874*%
%ADD79R,0.08268X0.04724*%
%ADD80R,0.05906X0.07783*%
%ADD81R,0.04488X0.17008*%
%ADD82R,0.35315X0.34961*%
G04:AMPARAMS|DCode=83|XSize=205.12mil|YSize=67.32mil|CornerRadius=11.37mil|HoleSize=0mil|Usage=FLASHONLY|Rotation=270.000|XOffset=0mil|YOffset=0mil|HoleType=Round|Shape=RoundedRectangle|*
%AMROUNDEDRECTD83*
21,1,0.20512,0.04459,0,0,270.0*
21,1,0.18238,0.06732,0,0,270.0*
1,1,0.02274,-0.02229,-0.09119*
1,1,0.02274,-0.02229,0.09119*
1,1,0.02274,0.02229,0.09119*
1,1,0.02274,0.02229,-0.09119*
%
%ADD83ROUNDEDRECTD83*%
%ADD84R,0.03937X0.11024*%
%ADD85R,0.03937X0.14961*%
%ADD86R,0.03543X0.11024*%
%ADD87R,0.06024X0.06024*%
%ADD88R,0.04331X0.08661*%
%ADD89R,0.08661X0.04331*%
D15*
X44685Y226604D02*
D03*
Y233829D02*
D03*
X41073Y222992D02*
D03*
Y230217D02*
D03*
Y237441D02*
D03*
X37461Y226604D02*
D03*
Y233829D02*
D03*
X33848Y222992D02*
D03*
Y230217D02*
D03*
Y237441D02*
D03*
X30236Y226604D02*
D03*
Y233829D02*
D03*
X28051Y29823D02*
D03*
X28150Y21457D02*
D03*
X28346Y12894D02*
D03*
X61713D02*
D03*
X61909Y21457D02*
D03*
X61319Y29823D02*
D03*
X53543D02*
D03*
X54035Y21457D02*
D03*
X53445Y12894D02*
D03*
X44783D02*
D03*
X45000Y21457D02*
D03*
X45472Y29823D02*
D03*
X36122D02*
D03*
X36319Y21457D02*
D03*
X36024Y12894D02*
D03*
X71752Y35630D02*
D03*
X71973Y17768D02*
D03*
D16*
X8957Y68307D02*
D03*
X16437D02*
D03*
X200787Y38386D02*
D03*
X193307D02*
D03*
X200886Y48917D02*
D03*
X193405D02*
D03*
X84957Y155020D02*
D03*
X77476D02*
D03*
X94193Y166732D02*
D03*
X86713D02*
D03*
X27264Y271850D02*
D03*
X34744D02*
D03*
X140365Y12643D02*
D03*
X132884D02*
D03*
X249902Y214961D02*
D03*
X242421D02*
D03*
X250098Y226181D02*
D03*
X242618D02*
D03*
X250098Y236811D02*
D03*
X242618D02*
D03*
X250197Y247441D02*
D03*
X242717D02*
D03*
X105909Y267069D02*
D03*
X98428D02*
D03*
X15256Y271850D02*
D03*
X7776D02*
D03*
X94291Y177165D02*
D03*
X86811D02*
D03*
X39961Y80905D02*
D03*
X32480D02*
D03*
X37598Y122638D02*
D03*
X45079D02*
D03*
D17*
X204724Y68898D02*
D03*
Y76378D02*
D03*
X215453Y68799D02*
D03*
Y76279D02*
D03*
X129823Y36781D02*
D03*
Y29301D02*
D03*
X119223Y36781D02*
D03*
Y29301D02*
D03*
X140123Y36681D02*
D03*
Y29201D02*
D03*
X171260Y36614D02*
D03*
Y29134D02*
D03*
X150591D02*
D03*
Y36614D02*
D03*
X116929Y117421D02*
D03*
Y109941D02*
D03*
X99869Y136409D02*
D03*
Y128928D02*
D03*
X159369Y194228D02*
D03*
Y201709D02*
D03*
X151181Y120866D02*
D03*
Y113386D02*
D03*
X110468Y136509D02*
D03*
Y129028D02*
D03*
X149068Y194628D02*
D03*
Y202109D02*
D03*
X161516Y120472D02*
D03*
Y112992D02*
D03*
X140484Y120647D02*
D03*
Y113166D02*
D03*
X190059Y185728D02*
D03*
Y193209D02*
D03*
Y173917D02*
D03*
Y166437D02*
D03*
X169968Y193828D02*
D03*
Y201309D02*
D03*
X181693Y60728D02*
D03*
Y68209D02*
D03*
X105610Y58169D02*
D03*
Y65650D02*
D03*
X95079Y58071D02*
D03*
Y65551D02*
D03*
X171457Y60728D02*
D03*
Y68209D02*
D03*
X100787Y195669D02*
D03*
Y203150D02*
D03*
X90256Y189567D02*
D03*
Y197047D02*
D03*
X128368Y240928D02*
D03*
Y248409D02*
D03*
X120472Y214665D02*
D03*
Y222146D02*
D03*
X110138Y212598D02*
D03*
Y220079D02*
D03*
X18464Y40660D02*
D03*
Y48140D02*
D03*
X240813Y144957D02*
D03*
Y152438D02*
D03*
X74085Y104117D02*
D03*
Y111598D02*
D03*
X204869Y144028D02*
D03*
Y151509D02*
D03*
X204768Y115509D02*
D03*
Y108028D02*
D03*
X204869Y126828D02*
D03*
Y134309D02*
D03*
X8164Y40660D02*
D03*
Y48140D02*
D03*
X160925Y29232D02*
D03*
Y36713D02*
D03*
D18*
X270177Y10335D02*
D03*
X169291Y129921D02*
D03*
X267717Y267717D02*
D03*
X11811Y11811D02*
D03*
D19*
X102854Y89803D02*
D03*
X216673Y216024D02*
D03*
X62077Y94314D02*
D03*
X245965Y195039D02*
D03*
D20*
X102854Y99803D02*
D03*
X226673Y256024D02*
D03*
X216673D02*
D03*
X226673Y246024D02*
D03*
X216673D02*
D03*
X226673Y236024D02*
D03*
X216673D02*
D03*
X226673Y226024D02*
D03*
X216673D02*
D03*
X226673Y216024D02*
D03*
X62077Y104314D02*
D03*
Y114314D02*
D03*
Y124314D02*
D03*
X245965Y185039D02*
D03*
Y175039D02*
D03*
X58701Y176870D02*
D03*
D21*
X176339Y213779D02*
D03*
X68701Y176870D02*
D03*
D22*
X166339Y213779D02*
D03*
D23*
X12106Y166339D02*
D03*
X96457Y20669D02*
D03*
X262500Y150886D02*
D03*
X161417Y259842D02*
D03*
X81201Y77559D02*
D03*
X262500Y20669D02*
D03*
X259842Y259842D02*
D03*
D52*
X30358Y92815D02*
D03*
X40114D02*
D03*
D53*
X44548Y140059D02*
D03*
Y136319D02*
D03*
Y132579D02*
D03*
X33798D02*
D03*
Y136319D02*
D03*
Y140059D02*
D03*
D57*
X253543Y125295D02*
D03*
X235827D02*
D03*
Y93996D02*
D03*
X253543D02*
D03*
D61*
X180413Y185523D02*
D03*
Y174123D02*
D03*
D62*
X154528Y182087D02*
D03*
X152559D02*
D03*
X150591D02*
D03*
X148622D02*
D03*
X146653D02*
D03*
X144685D02*
D03*
X142717D02*
D03*
X140748D02*
D03*
X138779D02*
D03*
X136811D02*
D03*
X134843D02*
D03*
X132874D02*
D03*
X130905D02*
D03*
X128937D02*
D03*
X126969D02*
D03*
X125000D02*
D03*
Y136811D02*
D03*
X126969D02*
D03*
X128937D02*
D03*
X130905D02*
D03*
X132874D02*
D03*
X134843D02*
D03*
X136811D02*
D03*
X138779D02*
D03*
X140748D02*
D03*
X142717D02*
D03*
X144685D02*
D03*
X146653D02*
D03*
X148622D02*
D03*
X150591D02*
D03*
X152559D02*
D03*
X154528D02*
D03*
D63*
X117126Y174213D02*
D03*
Y172244D02*
D03*
Y170276D02*
D03*
Y168307D02*
D03*
Y166339D02*
D03*
Y164370D02*
D03*
Y162402D02*
D03*
Y160433D02*
D03*
Y158465D02*
D03*
Y156496D02*
D03*
Y154527D02*
D03*
Y152559D02*
D03*
Y150591D02*
D03*
Y148622D02*
D03*
Y146653D02*
D03*
Y144685D02*
D03*
X162402D02*
D03*
Y146653D02*
D03*
Y148622D02*
D03*
Y150591D02*
D03*
Y152559D02*
D03*
Y154527D02*
D03*
Y156496D02*
D03*
Y158465D02*
D03*
Y160433D02*
D03*
Y162402D02*
D03*
Y164370D02*
D03*
Y166339D02*
D03*
Y168307D02*
D03*
Y170276D02*
D03*
Y172244D02*
D03*
Y174213D02*
D03*
D64*
X32480Y150492D02*
D03*
Y168209D02*
D03*
X63779D02*
D03*
Y150492D02*
D03*
D73*
X250925Y52697D02*
D03*
Y47697D02*
D03*
Y42697D02*
D03*
Y57697D02*
D03*
X220925D02*
D03*
Y52697D02*
D03*
Y47697D02*
D03*
Y42697D02*
D03*
D74*
X9744Y76673D02*
D03*
X16043D02*
D03*
D75*
X41339Y108858D02*
D03*
X24606D02*
D03*
D76*
X18659Y132480D02*
D03*
Y135039D02*
D03*
Y137598D02*
D03*
Y140157D02*
D03*
Y142717D02*
D03*
D77*
X18024Y147892D02*
D03*
Y127305D02*
D03*
D78*
X7087Y133071D02*
D03*
D79*
Y143701D02*
D03*
D80*
Y123311D02*
D03*
Y151886D02*
D03*
D81*
X35000Y61367D02*
D03*
X55000D02*
D03*
D82*
X45000Y21209D02*
D03*
D83*
X187700Y111027D02*
D03*
Y148428D02*
D03*
D84*
X118110Y52953D02*
D03*
X161417Y76968D02*
D03*
Y52953D02*
D03*
D85*
X118110Y75000D02*
D03*
D86*
X129764Y76968D02*
D03*
X134764D02*
D03*
X139764D02*
D03*
X144764D02*
D03*
X149764D02*
D03*
Y52953D02*
D03*
X144764D02*
D03*
X139764D02*
D03*
X134764D02*
D03*
X129764D02*
D03*
D87*
X44685Y222992D02*
D03*
Y230217D02*
D03*
Y237441D02*
D03*
X37461Y222992D02*
D03*
Y230217D02*
D03*
Y237441D02*
D03*
X30236Y222992D02*
D03*
Y230217D02*
D03*
Y237441D02*
D03*
D88*
X7933Y192815D02*
D03*
X12933D02*
D03*
X17933D02*
D03*
X22933D02*
D03*
X27933D02*
D03*
X32933D02*
D03*
X37933D02*
D03*
X42933D02*
D03*
X47933D02*
D03*
X52933D02*
D03*
X57933D02*
D03*
X62933D02*
D03*
X67933D02*
D03*
X72933D02*
D03*
Y259744D02*
D03*
X67933D02*
D03*
X62933D02*
D03*
X57933D02*
D03*
X52933D02*
D03*
X47933D02*
D03*
X42933D02*
D03*
X37933D02*
D03*
X32933D02*
D03*
X27933D02*
D03*
X22933D02*
D03*
X17933D02*
D03*
X12933D02*
D03*
X7933D02*
D03*
D89*
X76870Y203780D02*
D03*
Y208780D02*
D03*
Y213779D02*
D03*
Y218779D02*
D03*
Y223780D02*
D03*
Y228780D02*
D03*
Y233780D02*
D03*
Y238779D02*
D03*
Y243779D02*
D03*
Y248780D02*
D03*
M02*
