G04*
G04 #@! TF.GenerationSoftware,Altium Limited,Altium Designer,19.1.6 (110)*
G04*
G04 Layer_Physical_Order=1*
G04 Layer_Color=255*
%FSLAX25Y25*%
%MOIN*%
G70*
G01*
G75*
%ADD11C,0.00787*%
%ADD12C,0.00591*%
%ADD13R,0.05118X0.05906*%
%ADD14R,0.05906X0.05118*%
%ADD15C,0.03937*%
%ADD24C,0.01575*%
%ADD25C,0.01181*%
%ADD26C,0.02756*%
%ADD27C,0.01968*%
%ADD28C,0.03543*%
%ADD29C,0.03150*%
%ADD30C,0.04724*%
%ADD31C,0.03800*%
%ADD32C,0.02362*%
%ADD33C,0.03937*%
%ADD34C,0.03504*%
%ADD35C,0.00984*%
%ADD36C,0.03000*%
%ADD37C,0.01024*%
%ADD38R,0.05906X0.05906*%
%ADD39C,0.05906*%
%ADD40R,0.05906X0.05906*%
%ADD41C,0.06500*%
%ADD42C,0.03150*%
%ADD43C,0.10039*%
G36*
X277148Y2149D02*
X1557D01*
Y189623D01*
X3248D01*
X3716Y189716D01*
X4113Y189981D01*
X4378Y190378D01*
X4471Y190847D01*
Y261713D01*
X4378Y262181D01*
X4113Y262578D01*
X3716Y262843D01*
X3248Y262936D01*
X1557D01*
Y277740D01*
X277148D01*
Y2149D01*
D02*
G37*
%LPC*%
G36*
X20571Y273865D02*
X19649Y273682D01*
X18868Y273160D01*
X18346Y272378D01*
X18162Y271457D01*
X18346Y270535D01*
X18868Y269754D01*
X19649Y269232D01*
X20571Y269048D01*
X21493Y269232D01*
X22274Y269754D01*
X22796Y270535D01*
X22979Y271457D01*
X22796Y272378D01*
X22274Y273160D01*
X21493Y273682D01*
X20571Y273865D01*
D02*
G37*
G36*
X267717Y270233D02*
X266753Y270042D01*
X265937Y269496D01*
X265391Y268680D01*
X265200Y267717D01*
X265391Y266753D01*
X265937Y265937D01*
X266753Y265391D01*
X267717Y265200D01*
X268680Y265391D01*
X269496Y265937D01*
X270042Y266753D01*
X270233Y267717D01*
X270042Y268680D01*
X269496Y269496D01*
X268680Y270042D01*
X267717Y270233D01*
D02*
G37*
G36*
X217657Y259881D02*
Y257008D01*
X220531D01*
X220524Y257055D01*
X220126Y258017D01*
X219492Y258843D01*
X218667Y259476D01*
X217705Y259875D01*
X217657Y259881D01*
D02*
G37*
G36*
X215689D02*
X215641Y259875D01*
X214680Y259476D01*
X213854Y258843D01*
X213221Y258017D01*
X212822Y257055D01*
X212816Y257008D01*
X215689D01*
Y259881D01*
D02*
G37*
G36*
X259842Y265678D02*
X258704Y265566D01*
X257610Y265233D01*
X256601Y264694D01*
X255716Y263969D01*
X254991Y263084D01*
X254451Y262076D01*
X254119Y260981D01*
X254007Y259842D01*
X254119Y258704D01*
X254451Y257610D01*
X254991Y256601D01*
X255716Y255716D01*
X256601Y254991D01*
X257610Y254451D01*
X258704Y254119D01*
X259842Y254007D01*
X260981Y254119D01*
X262076Y254451D01*
X263084Y254991D01*
X263969Y255716D01*
X264694Y256601D01*
X265233Y257610D01*
X265566Y258704D01*
X265678Y259842D01*
X265566Y260981D01*
X265233Y262076D01*
X264694Y263084D01*
X263969Y263969D01*
X263084Y264694D01*
X262076Y265233D01*
X260981Y265566D01*
X259842Y265678D01*
D02*
G37*
G36*
X161417D02*
X160279Y265566D01*
X159184Y265233D01*
X158176Y264694D01*
X157291Y263969D01*
X156566Y263084D01*
X156026Y262076D01*
X155694Y260981D01*
X155582Y259842D01*
X155694Y258704D01*
X156026Y257610D01*
X156566Y256601D01*
X157291Y255716D01*
X158176Y254991D01*
X159184Y254451D01*
X160279Y254119D01*
X161417Y254007D01*
X162556Y254119D01*
X163650Y254451D01*
X164659Y254991D01*
X165543Y255716D01*
X166269Y256601D01*
X166808Y257610D01*
X167140Y258704D01*
X167253Y259842D01*
X167140Y260981D01*
X166808Y262076D01*
X166269Y263084D01*
X165543Y263969D01*
X164659Y264694D01*
X163650Y265233D01*
X162556Y265566D01*
X161417Y265678D01*
D02*
G37*
G36*
X36228Y254535D02*
X30110D01*
Y252403D01*
X25212D01*
X25036Y252520D01*
X24114Y252704D01*
X23192Y252520D01*
X22411Y251998D01*
X21889Y251217D01*
X21710Y250315D01*
X16406Y245011D01*
X16035Y244455D01*
X15904Y243799D01*
Y241740D01*
X14559D01*
Y234835D01*
X16105D01*
Y221949D01*
X16105Y221949D01*
X16220Y221370D01*
X16548Y220879D01*
X30524Y206902D01*
X30524Y206902D01*
X31015Y206574D01*
X31594Y206459D01*
X31594Y206459D01*
X47364D01*
X85002Y168821D01*
Y156485D01*
X85002Y156485D01*
X85118Y155906D01*
X85446Y155415D01*
X87758Y153103D01*
Y150008D01*
X86213D01*
Y143102D01*
X92331D01*
Y144894D01*
X106766D01*
X106860Y144754D01*
X107641Y144231D01*
X108563Y144048D01*
X109485Y144231D01*
X110266Y144754D01*
X110788Y145535D01*
X110971Y146457D01*
X110788Y147378D01*
X110266Y148160D01*
X109485Y148682D01*
X108563Y148865D01*
X107641Y148682D01*
X106860Y148160D01*
X106700Y147921D01*
X92331D01*
Y150008D01*
X90785D01*
Y153729D01*
X90670Y154308D01*
X90342Y154799D01*
X88029Y157112D01*
Y169447D01*
X88029Y169447D01*
X87914Y170027D01*
X87586Y170518D01*
X49061Y209043D01*
X48570Y209371D01*
X47991Y209486D01*
X47991Y209486D01*
X32221D01*
X19131Y222576D01*
Y234835D01*
X20677D01*
Y241740D01*
X19332D01*
Y243089D01*
X24134Y247891D01*
X25036Y248070D01*
X25817Y248592D01*
X26073Y248975D01*
X30110D01*
Y247630D01*
X36228D01*
Y254535D01*
D02*
G37*
G36*
X215689Y255039D02*
X212816D01*
X212822Y254992D01*
X213221Y254030D01*
X213854Y253204D01*
X214680Y252571D01*
X215641Y252173D01*
X215689Y252166D01*
Y255039D01*
D02*
G37*
G36*
X220531D02*
X217657D01*
Y252166D01*
X217705Y252173D01*
X218667Y252571D01*
X219492Y253204D01*
X220126Y254030D01*
X220524Y254992D01*
X220531Y255039D01*
D02*
G37*
G36*
X226673Y249796D02*
X225697Y249668D01*
X224787Y249291D01*
X224006Y248691D01*
X223406Y247910D01*
X223029Y247000D01*
X222901Y246024D01*
X223029Y245047D01*
X223267Y244474D01*
X221274Y242481D01*
X219022D01*
X218852Y242981D01*
X219341Y243356D01*
X219940Y244137D01*
X220317Y245047D01*
X220446Y246024D01*
X220317Y247000D01*
X219940Y247910D01*
X219341Y248691D01*
X218559Y249291D01*
X217650Y249668D01*
X216673Y249796D01*
X215697Y249668D01*
X214787Y249291D01*
X214006Y248691D01*
X213406Y247910D01*
X213029Y247000D01*
X212901Y246024D01*
X213029Y245047D01*
X213406Y244137D01*
X214006Y243356D01*
X214494Y242981D01*
X214325Y242481D01*
X171976D01*
X171473Y242381D01*
X171047Y242097D01*
X138240Y209290D01*
X137956Y208864D01*
X137856Y208361D01*
Y203590D01*
X128492Y194226D01*
X127259D01*
X126998Y194616D01*
X126217Y195139D01*
X125295Y195322D01*
X124374Y195139D01*
X123592Y194616D01*
X123070Y193835D01*
X122887Y192913D01*
X123070Y191992D01*
X123592Y191210D01*
X124374Y190688D01*
X125295Y190505D01*
X126217Y190688D01*
X126998Y191210D01*
X127259Y191601D01*
X129035D01*
X129538Y191701D01*
X129964Y191985D01*
X140097Y202118D01*
X140381Y202544D01*
X140481Y203046D01*
Y207818D01*
X172519Y239856D01*
X214353D01*
X214523Y239356D01*
X213854Y238843D01*
X213221Y238017D01*
X212822Y237055D01*
X212816Y237008D01*
X216673D01*
X220531D01*
X220524Y237055D01*
X220126Y238017D01*
X219492Y238843D01*
X218824Y239356D01*
X218993Y239856D01*
X221818D01*
X222320Y239956D01*
X222746Y240240D01*
X225123Y242617D01*
X225697Y242380D01*
X226673Y242251D01*
X227650Y242380D01*
X228559Y242757D01*
X229341Y243356D01*
X229940Y244137D01*
X230317Y245047D01*
X230446Y246024D01*
X230317Y247000D01*
X229940Y247910D01*
X229341Y248691D01*
X228559Y249291D01*
X227650Y249668D01*
X226673Y249796D01*
D02*
G37*
G36*
X129021Y247268D02*
X122116D01*
Y246885D01*
X120069D01*
X119105Y246694D01*
X118289Y246148D01*
X117743Y245332D01*
X117552Y244369D01*
X117743Y243405D01*
X118289Y242589D01*
X119105Y242043D01*
X120069Y241852D01*
X122116D01*
Y241150D01*
X129021D01*
Y247268D01*
D02*
G37*
G36*
X41073Y239849D02*
X40151Y239666D01*
X39370Y239144D01*
X38848Y238363D01*
X38664Y237441D01*
X38848Y236519D01*
X39059Y236203D01*
X38698Y235843D01*
X38382Y236054D01*
X37461Y236237D01*
X36539Y236054D01*
X36223Y235843D01*
X35862Y236203D01*
X36074Y236519D01*
X36257Y237441D01*
X36074Y238363D01*
X35552Y239144D01*
X34770Y239666D01*
X33848Y239849D01*
X32927Y239666D01*
X32145Y239144D01*
X31623Y238363D01*
X31440Y237441D01*
X31623Y236519D01*
X31835Y236203D01*
X31474Y235843D01*
X31158Y236054D01*
X30236Y236237D01*
X29315Y236054D01*
X28533Y235532D01*
X28011Y234750D01*
X27828Y233829D01*
X28011Y232907D01*
X28533Y232126D01*
X29315Y231604D01*
X30236Y231420D01*
X31158Y231604D01*
X31474Y231815D01*
X31835Y231454D01*
X31623Y231138D01*
X31440Y230217D01*
X31623Y229295D01*
X31835Y228979D01*
X31474Y228618D01*
X31158Y228830D01*
X30236Y229013D01*
X29315Y228830D01*
X28533Y228307D01*
X28011Y227526D01*
X27828Y226604D01*
X28011Y225683D01*
X28533Y224901D01*
X29315Y224379D01*
X30236Y224196D01*
X31158Y224379D01*
X31474Y224590D01*
X31835Y224230D01*
X31623Y223914D01*
X31440Y222992D01*
X31623Y222070D01*
X32145Y221289D01*
X32927Y220767D01*
X33848Y220584D01*
X34770Y220767D01*
X35552Y221289D01*
X36074Y222070D01*
X36257Y222992D01*
X36074Y223914D01*
X35862Y224230D01*
X36223Y224590D01*
X36539Y224379D01*
X37461Y224196D01*
X38382Y224379D01*
X38698Y224590D01*
X39059Y224230D01*
X38848Y223914D01*
X38664Y222992D01*
X38848Y222070D01*
X39370Y221289D01*
X40151Y220767D01*
X41073Y220584D01*
X41995Y220767D01*
X42776Y221289D01*
X43298Y222070D01*
X43481Y222992D01*
X43298Y223914D01*
X43087Y224230D01*
X43447Y224590D01*
X43763Y224379D01*
X44685Y224196D01*
X45607Y224379D01*
X46388Y224901D01*
X46910Y225683D01*
X47093Y226604D01*
X46910Y227526D01*
X46388Y228307D01*
X45607Y228830D01*
X44685Y229013D01*
X43763Y228830D01*
X43447Y228618D01*
X43087Y228979D01*
X43298Y229295D01*
X43481Y230217D01*
X43298Y231138D01*
X43087Y231454D01*
X43447Y231815D01*
X43763Y231604D01*
X44685Y231420D01*
X45607Y231604D01*
X46388Y232126D01*
X46910Y232907D01*
X47093Y233829D01*
X46910Y234750D01*
X46388Y235532D01*
X45607Y236054D01*
X44685Y236237D01*
X43763Y236054D01*
X43447Y235843D01*
X43087Y236203D01*
X43298Y236519D01*
X43481Y237441D01*
X43298Y238363D01*
X42776Y239144D01*
X41995Y239666D01*
X41073Y239849D01*
D02*
G37*
G36*
X198968Y239321D02*
X192850D01*
Y232416D01*
X198968D01*
Y233113D01*
X200886D01*
X201849Y233305D01*
X202665Y233850D01*
X203211Y234667D01*
X203403Y235630D01*
X203211Y236593D01*
X202665Y237410D01*
X201849Y237955D01*
X200886Y238147D01*
X198968D01*
Y239321D01*
D02*
G37*
G36*
X226673Y239796D02*
X225697Y239668D01*
X224787Y239291D01*
X224006Y238691D01*
X223406Y237910D01*
X223029Y237000D01*
X222901Y236024D01*
X223029Y235047D01*
X223406Y234137D01*
X224006Y233356D01*
X224787Y232757D01*
X225697Y232380D01*
X226673Y232251D01*
X227650Y232380D01*
X228559Y232757D01*
X229341Y233356D01*
X229940Y234137D01*
X230317Y235047D01*
X230446Y236024D01*
X230317Y237000D01*
X229940Y237910D01*
X229341Y238691D01*
X228559Y239291D01*
X227650Y239668D01*
X226673Y239796D01*
D02*
G37*
G36*
X215689Y235039D02*
X212816D01*
X212822Y234992D01*
X213221Y234030D01*
X213854Y233205D01*
X214680Y232571D01*
X215641Y232173D01*
X215689Y232166D01*
Y235039D01*
D02*
G37*
G36*
X220531D02*
X217657D01*
Y232166D01*
X217705Y232173D01*
X218667Y232571D01*
X219492Y233205D01*
X220126Y234030D01*
X220524Y234992D01*
X220531Y235039D01*
D02*
G37*
G36*
X13197Y241740D02*
X7079D01*
Y234835D01*
X7727D01*
Y234206D01*
X7716Y234189D01*
X7532Y233268D01*
X7716Y232346D01*
X8238Y231565D01*
X9019Y231043D01*
X9941Y230859D01*
X10863Y231043D01*
X11644Y231565D01*
X12166Y232346D01*
X12349Y233268D01*
X12166Y234189D01*
X12069Y234335D01*
X12168Y234835D01*
X13197D01*
Y241740D01*
D02*
G37*
G36*
X142569Y239755D02*
X141821Y239657D01*
X141125Y239369D01*
X140527Y238910D01*
X140068Y238312D01*
X139780Y237616D01*
X139682Y236869D01*
Y233868D01*
X139116D01*
Y227750D01*
X146021D01*
Y233868D01*
X145455D01*
Y236869D01*
X145357Y237616D01*
X145069Y238312D01*
X144610Y238910D01*
X144012Y239369D01*
X143316Y239657D01*
X142569Y239755D01*
D02*
G37*
G36*
X217657Y229881D02*
Y227008D01*
X220531D01*
X220524Y227056D01*
X220126Y228017D01*
X219492Y228843D01*
X218667Y229476D01*
X217705Y229875D01*
X217657Y229881D01*
D02*
G37*
G36*
X215689D02*
X215641Y229875D01*
X214680Y229476D01*
X213854Y228843D01*
X213221Y228017D01*
X212822Y227056D01*
X212816Y227008D01*
X215689D01*
Y229881D01*
D02*
G37*
G36*
X226673Y229796D02*
X225697Y229667D01*
X224787Y229291D01*
X224006Y228691D01*
X223406Y227910D01*
X223029Y227000D01*
X222901Y226024D01*
X223029Y225047D01*
X223267Y224474D01*
X221661Y222868D01*
X219833D01*
X219618Y223368D01*
X220126Y224030D01*
X220524Y224992D01*
X220531Y225039D01*
X216673D01*
X212816D01*
X212822Y224992D01*
X213221Y224030D01*
X213729Y223368D01*
X213513Y222868D01*
X159449D01*
X158947Y222768D01*
X158521Y222483D01*
X143740Y207703D01*
X143456Y207277D01*
X143356Y206775D01*
Y202594D01*
X128197Y187435D01*
X123913D01*
X123652Y187825D01*
X122871Y188347D01*
X121949Y188531D01*
X121027Y188347D01*
X120246Y187825D01*
X119724Y187044D01*
X119540Y186122D01*
X119724Y185200D01*
X120246Y184419D01*
X121027Y183897D01*
X121949Y183714D01*
X122871Y183897D01*
X123652Y184419D01*
X123913Y184809D01*
X128740D01*
X129243Y184909D01*
X129668Y185194D01*
X145597Y201122D01*
X145881Y201548D01*
X145981Y202050D01*
Y206231D01*
X159993Y220243D01*
X202142D01*
X202242Y219742D01*
X202198Y219724D01*
X201600Y219266D01*
X201142Y218668D01*
X200853Y217972D01*
X200755Y217224D01*
Y214871D01*
X200550D01*
Y207965D01*
X200755D01*
Y206693D01*
X200853Y205946D01*
X201142Y205250D01*
X201600Y204652D01*
X202198Y204193D01*
X202587Y204032D01*
X202654Y203987D01*
X202502Y203487D01*
X179439D01*
X178936Y203387D01*
X178510Y203103D01*
X158413Y183005D01*
X132493D01*
X131991Y182906D01*
X131565Y182621D01*
X121529Y172585D01*
X121069Y172677D01*
X120147Y172494D01*
X119366Y171972D01*
X118843Y171190D01*
X118660Y170268D01*
X118843Y169347D01*
X119366Y168565D01*
X120147Y168043D01*
X121069Y167860D01*
X121990Y168043D01*
X122772Y168565D01*
X123294Y169347D01*
X123477Y170268D01*
X123385Y170729D01*
X133037Y180380D01*
X158957D01*
X159459Y180480D01*
X159885Y180765D01*
X173277Y194157D01*
X173738Y193911D01*
X173709Y193765D01*
X173892Y192843D01*
X174414Y192061D01*
X175196Y191539D01*
X176117Y191356D01*
X177039Y191539D01*
X177820Y192061D01*
X178342Y192843D01*
X178526Y193765D01*
X178342Y194686D01*
X177820Y195468D01*
X177039Y195990D01*
X176117Y196173D01*
X175971Y196144D01*
X175725Y196605D01*
X179982Y200862D01*
X219301D01*
X219803Y200962D01*
X220229Y201247D01*
X227601Y208619D01*
X227886Y209045D01*
X227986Y209547D01*
Y212519D01*
X228559Y212757D01*
X229341Y213356D01*
X229940Y214137D01*
X230317Y215047D01*
X230446Y216024D01*
X230317Y217000D01*
X229940Y217910D01*
X229341Y218691D01*
X228559Y219291D01*
X227650Y219668D01*
X226673Y219796D01*
X225697Y219668D01*
X224787Y219291D01*
X224006Y218691D01*
X223406Y217910D01*
X223029Y217000D01*
X222901Y216024D01*
X223029Y215047D01*
X223406Y214137D01*
X224006Y213356D01*
X224787Y212757D01*
X225361Y212519D01*
Y210091D01*
X218757Y203487D01*
X204978D01*
X204827Y203987D01*
X205443Y204399D01*
X205537Y204539D01*
X205683Y204652D01*
X206142Y205250D01*
X206430Y205946D01*
X206529Y206693D01*
Y207965D01*
X206668D01*
Y214871D01*
X206529D01*
Y217224D01*
X206430Y217972D01*
X206142Y218668D01*
X205683Y219266D01*
X205085Y219724D01*
X205042Y219742D01*
X205141Y220243D01*
X212882D01*
X212933Y219764D01*
X212933Y219742D01*
Y212283D01*
X220413D01*
Y219742D01*
X220413Y219764D01*
X220465Y220243D01*
X222205D01*
X222707Y220342D01*
X223133Y220627D01*
X225123Y222617D01*
X225697Y222380D01*
X226673Y222251D01*
X227650Y222380D01*
X228559Y222757D01*
X229341Y223356D01*
X229940Y224137D01*
X230317Y225047D01*
X230446Y226024D01*
X230317Y227000D01*
X229940Y227910D01*
X229341Y228691D01*
X228559Y229291D01*
X227650Y229667D01*
X226673Y229796D01*
D02*
G37*
G36*
X37402Y220125D02*
X36480Y219942D01*
X35699Y219420D01*
X35176Y218638D01*
X34993Y217717D01*
X35176Y216795D01*
X35699Y216014D01*
X36480Y215491D01*
X37402Y215308D01*
X38323Y215491D01*
X39105Y216014D01*
X39627Y216795D01*
X39810Y217717D01*
X39627Y218638D01*
X39105Y219420D01*
X38323Y219942D01*
X37402Y220125D01*
D02*
G37*
G36*
X99114Y226621D02*
X98193Y226438D01*
X97411Y225916D01*
X96889Y225134D01*
X96706Y224213D01*
X96889Y223291D01*
X97400Y222526D01*
Y215567D01*
X95616D01*
Y214222D01*
X91421D01*
Y215567D01*
X84516D01*
Y209449D01*
X91421D01*
Y210794D01*
X95616D01*
Y209449D01*
X102521D01*
Y210794D01*
X106416D01*
Y209449D01*
X113321D01*
Y210794D01*
X116816D01*
Y209449D01*
X123721D01*
Y210407D01*
X124076Y210759D01*
X127216Y210731D01*
Y209449D01*
X134121D01*
Y215567D01*
X133785D01*
Y217394D01*
X134194Y218005D01*
X134385Y218969D01*
X134194Y219932D01*
X133648Y220748D01*
X132832Y221294D01*
X131869Y221485D01*
X130905Y221294D01*
X130089Y220748D01*
X129489Y220148D01*
X128943Y219332D01*
X128752Y218369D01*
Y215567D01*
X127216D01*
Y214514D01*
X126861Y214162D01*
X123721Y214191D01*
Y215567D01*
X116816D01*
Y214222D01*
X113321D01*
Y215567D01*
X106416D01*
Y214222D01*
X102521D01*
Y215567D01*
X100828D01*
Y222526D01*
X101339Y223291D01*
X101523Y224213D01*
X101339Y225134D01*
X100817Y225916D01*
X100036Y226438D01*
X99114Y226621D01*
D02*
G37*
G36*
X180079Y217520D02*
X172598D01*
Y210039D01*
X180079D01*
Y217520D01*
D02*
G37*
G36*
X243610Y209752D02*
X237492D01*
Y202847D01*
X243610D01*
Y204577D01*
X246946D01*
X247110Y204468D01*
X248031Y204284D01*
X248953Y204468D01*
X249734Y204990D01*
X250257Y205771D01*
X250440Y206693D01*
X250257Y207615D01*
X249734Y208396D01*
X248953Y208918D01*
X248031Y209101D01*
X247110Y208918D01*
X246946Y208808D01*
X243610D01*
Y209752D01*
D02*
G37*
G36*
X236130D02*
X230012D01*
Y207809D01*
X229429D01*
X228927Y207709D01*
X228501Y207424D01*
X226690Y205613D01*
X226405Y205187D01*
X226306Y204685D01*
Y198921D01*
X224669D01*
Y196691D01*
X209358D01*
X208933Y196606D01*
X208572Y196365D01*
X200327Y188120D01*
X178508D01*
X178082Y188035D01*
X177722Y187794D01*
X177722Y187794D01*
X163874Y173947D01*
X131988D01*
X131988Y173947D01*
X131563Y173862D01*
X131202Y173621D01*
X131202Y173621D01*
X122154Y164573D01*
X121457Y164712D01*
X120535Y164528D01*
X119754Y164006D01*
X119231Y163225D01*
X119048Y162303D01*
X119231Y161381D01*
X119754Y160600D01*
X119948Y160470D01*
X119796Y159970D01*
X113319D01*
X112924Y160561D01*
X112142Y161083D01*
X111221Y161267D01*
X110299Y161083D01*
X109517Y160561D01*
X108995Y159780D01*
X108812Y158858D01*
X108995Y157937D01*
X109517Y157155D01*
X110299Y156633D01*
X111221Y156450D01*
X112142Y156633D01*
X112924Y157155D01*
X113319Y157746D01*
X133563D01*
X133563Y157746D01*
X133988Y157831D01*
X134349Y158072D01*
X144358Y168081D01*
X169587D01*
X169587Y168081D01*
X170012Y168166D01*
X170373Y168407D01*
X179791Y177825D01*
X212697D01*
X212697Y177825D01*
X213122Y177910D01*
X213483Y178151D01*
X219063Y183731D01*
X224598D01*
Y181390D01*
X225837D01*
Y177862D01*
X224795D01*
Y171744D01*
X231701D01*
Y177862D01*
X230068D01*
Y181390D01*
X230716D01*
Y188295D01*
X224598D01*
Y185954D01*
X218602D01*
X218602Y185954D01*
X218177Y185870D01*
X217816Y185629D01*
X217816Y185629D01*
X212236Y180049D01*
X179331D01*
X178905Y179964D01*
X178544Y179723D01*
X178544Y179723D01*
X169126Y170305D01*
X143898D01*
X143898Y170305D01*
X143472Y170220D01*
X143111Y169979D01*
X143111Y169979D01*
X133102Y159970D01*
X123117D01*
X122965Y160470D01*
X123160Y160600D01*
X123682Y161381D01*
X123865Y162303D01*
X123726Y163000D01*
X132449Y171723D01*
X164335D01*
X164335Y171723D01*
X164760Y171807D01*
X165121Y172048D01*
X178968Y185896D01*
X200787D01*
X200787Y185896D01*
X201213Y185981D01*
X201574Y186222D01*
X209819Y194467D01*
X224669D01*
Y192016D01*
X230787D01*
Y198921D01*
X228931D01*
Y204141D01*
X229512Y204722D01*
X230012Y204515D01*
Y202847D01*
X236130D01*
Y209752D01*
D02*
G37*
G36*
X166339Y217852D02*
X165285Y217713D01*
X164303Y217306D01*
X163459Y216659D01*
X162812Y215816D01*
X162405Y214833D01*
X162266Y213779D01*
X162405Y212726D01*
X162812Y211743D01*
X163459Y210900D01*
X164303Y210253D01*
X164625Y210120D01*
Y204844D01*
X157361Y197580D01*
X155913D01*
Y198925D01*
X149008D01*
Y195231D01*
X145540Y191763D01*
X145168Y191207D01*
X145038Y190551D01*
Y189383D01*
X144527Y188619D01*
X144343Y187697D01*
X144527Y186775D01*
X145049Y185994D01*
X145830Y185472D01*
X146752Y185288D01*
X147674Y185472D01*
X148455Y185994D01*
X148977Y186775D01*
X149160Y187697D01*
X148977Y188619D01*
X148466Y189383D01*
Y189841D01*
X151432Y192807D01*
X155913D01*
Y194152D01*
X158071D01*
X158727Y194283D01*
X159283Y194654D01*
X167551Y202922D01*
X167922Y203478D01*
X168053Y204134D01*
Y210120D01*
X168375Y210253D01*
X169218Y210900D01*
X169865Y211743D01*
X170272Y212726D01*
X170411Y213779D01*
X170272Y214833D01*
X169865Y215816D01*
X169218Y216659D01*
X168375Y217306D01*
X167393Y217713D01*
X166339Y217852D01*
D02*
G37*
G36*
X123721Y208087D02*
X116816D01*
Y201969D01*
X117985D01*
X118073Y201468D01*
X117982Y201408D01*
X117460Y200626D01*
X117277Y199705D01*
X117460Y198783D01*
X117982Y198002D01*
X118763Y197480D01*
X119685Y197296D01*
X120607Y197480D01*
X121388Y198002D01*
X121910Y198783D01*
X122093Y199705D01*
X121910Y200626D01*
X121388Y201408D01*
X121297Y201468D01*
X121385Y201969D01*
X123721D01*
Y208087D01*
D02*
G37*
G36*
X134121D02*
X127216D01*
Y201969D01*
X127227D01*
X127379Y201468D01*
X127234Y201372D01*
X126712Y200590D01*
X126529Y199669D01*
X126712Y198747D01*
X127234Y197966D01*
X128015Y197443D01*
X128937Y197260D01*
X129859Y197443D01*
X130640Y197966D01*
X131162Y198747D01*
X131345Y199669D01*
X131162Y200590D01*
X130640Y201372D01*
X130545Y201435D01*
Y201969D01*
X134121D01*
Y208087D01*
D02*
G37*
G36*
X113321D02*
X106416D01*
Y201969D01*
X107833D01*
Y201190D01*
X107964Y200534D01*
X108335Y199978D01*
X109664Y198649D01*
X109843Y197747D01*
X110365Y196966D01*
X111147Y196443D01*
X112068Y196260D01*
X112990Y196443D01*
X113772Y196966D01*
X114294Y197747D01*
X114477Y198669D01*
X114294Y199590D01*
X113772Y200372D01*
X112990Y200894D01*
X112088Y201073D01*
X111693Y201468D01*
X111900Y201969D01*
X113321D01*
Y208087D01*
D02*
G37*
G36*
X143569Y196677D02*
X142647Y196494D01*
X141866Y195972D01*
X141343Y195190D01*
X141160Y194269D01*
X141343Y193347D01*
X141866Y192566D01*
X142647Y192043D01*
X143569Y191860D01*
X144490Y192043D01*
X145272Y192566D01*
X145794Y193347D01*
X145977Y194269D01*
X145794Y195190D01*
X145272Y195972D01*
X144490Y196494D01*
X143569Y196677D01*
D02*
G37*
G36*
X238268Y198921D02*
X232150D01*
Y192016D01*
X238268D01*
Y193139D01*
X242224D01*
Y191299D01*
X249705D01*
Y198779D01*
X242224D01*
Y197369D01*
X238268D01*
Y198921D01*
D02*
G37*
G36*
X245965Y188812D02*
X244988Y188683D01*
X244078Y188306D01*
X243297Y187707D01*
X242798Y187056D01*
X238197D01*
Y188295D01*
X232079D01*
Y181390D01*
X238197D01*
Y182826D01*
X242949D01*
X243297Y182372D01*
X244078Y181772D01*
X244988Y181395D01*
X245965Y181267D01*
X246941Y181395D01*
X247851Y181772D01*
X248632Y182372D01*
X249232Y183153D01*
X249608Y184063D01*
X249737Y185039D01*
X249608Y186016D01*
X249232Y186926D01*
X248632Y187707D01*
X247851Y188306D01*
X246941Y188683D01*
X245965Y188812D01*
D02*
G37*
G36*
X91421Y208087D02*
X84516D01*
Y201969D01*
X86479D01*
Y198528D01*
X86479Y198528D01*
X86594Y197949D01*
X86922Y197458D01*
X95274Y189107D01*
X95229Y188883D01*
X95413Y187961D01*
X95935Y187180D01*
X96716Y186658D01*
X97638Y186474D01*
X98559Y186658D01*
X99341Y187180D01*
X99863Y187961D01*
X100046Y188883D01*
X99863Y189804D01*
X99341Y190586D01*
X98559Y191108D01*
X97638Y191291D01*
X97414Y191247D01*
X89505Y199155D01*
Y201969D01*
X91421D01*
Y208087D01*
D02*
G37*
G36*
X102521D02*
X95616D01*
Y201969D01*
X97949D01*
Y198735D01*
X97949Y198735D01*
X98064Y198155D01*
X98392Y197665D01*
X107112Y188944D01*
X107040Y188583D01*
X107224Y187661D01*
X107746Y186880D01*
X108527Y186357D01*
X109449Y186174D01*
X110371Y186357D01*
X111152Y186880D01*
X111674Y187661D01*
X111857Y188583D01*
X111674Y189504D01*
X111152Y190286D01*
X110371Y190808D01*
X109449Y190991D01*
X109363Y190974D01*
X100976Y199362D01*
Y201969D01*
X102521D01*
Y208087D01*
D02*
G37*
G36*
X89961Y186365D02*
X89039Y186182D01*
X88258Y185660D01*
X87735Y184878D01*
X87552Y183957D01*
X87735Y183035D01*
X88258Y182254D01*
X89039Y181731D01*
X89233Y181693D01*
X90053Y180873D01*
X90739Y180414D01*
X91549Y180253D01*
X92369D01*
Y178916D01*
X98487D01*
Y185821D01*
X92369D01*
Y185504D01*
X91869Y185352D01*
X91664Y185660D01*
X90882Y186182D01*
X89961Y186365D01*
D02*
G37*
G36*
X59685Y180727D02*
Y177854D01*
X62558D01*
X62552Y177902D01*
X62154Y178864D01*
X61520Y179689D01*
X60694Y180323D01*
X59733Y180721D01*
X59685Y180727D01*
D02*
G37*
G36*
X57717D02*
X57669Y180721D01*
X56707Y180323D01*
X55882Y179689D01*
X55248Y178864D01*
X54850Y177902D01*
X54843Y177854D01*
X57717D01*
Y180727D01*
D02*
G37*
G36*
X246949Y178897D02*
Y176024D01*
X249822D01*
X249816Y176071D01*
X249417Y177033D01*
X248784Y177858D01*
X247958Y178492D01*
X246996Y178890D01*
X246949Y178897D01*
D02*
G37*
G36*
X244980D02*
X244933Y178890D01*
X243971Y178492D01*
X243145Y177858D01*
X242512Y177033D01*
X242113Y176071D01*
X242107Y176024D01*
X244980D01*
Y178897D01*
D02*
G37*
G36*
X62558Y175886D02*
X59685D01*
Y173013D01*
X59733Y173019D01*
X60694Y173417D01*
X61520Y174051D01*
X62154Y174877D01*
X62552Y175838D01*
X62558Y175886D01*
D02*
G37*
G36*
X57717D02*
X54843D01*
X54850Y175838D01*
X55248Y174877D01*
X55882Y174051D01*
X56707Y173417D01*
X57669Y173019D01*
X57717Y173013D01*
Y175886D01*
D02*
G37*
G36*
X44668Y183877D02*
X43747Y183694D01*
X42965Y183172D01*
X42443Y182390D01*
X42260Y181468D01*
X42372Y180903D01*
Y179142D01*
X42020D01*
Y172236D01*
X48138D01*
Y179142D01*
X46965D01*
Y180903D01*
X47077Y181468D01*
X46894Y182390D01*
X46372Y183172D01*
X45590Y183694D01*
X44668Y183877D01*
D02*
G37*
G36*
X28368Y187277D02*
X27447Y187094D01*
X26665Y186572D01*
X26143Y185790D01*
X25960Y184869D01*
X26143Y183947D01*
X26665Y183166D01*
X26855Y183039D01*
Y178169D01*
X26855Y178168D01*
X26970Y177589D01*
X27298Y177098D01*
X30200Y174196D01*
X30155Y173969D01*
X30155Y173969D01*
Y144669D01*
X30155Y144668D01*
X30270Y144089D01*
X30598Y143598D01*
X39043Y135154D01*
X39043Y135153D01*
X47675Y126522D01*
X47678Y126520D01*
X47679Y126517D01*
X54589Y119662D01*
X58588Y115663D01*
X58433Y115290D01*
X58305Y114314D01*
X58433Y113338D01*
X58810Y112428D01*
X59410Y111647D01*
X60191Y111047D01*
X61101Y110670D01*
X62077Y110542D01*
X63054Y110670D01*
X63963Y111047D01*
X64745Y111647D01*
X65344Y112428D01*
X65721Y113338D01*
X65850Y114314D01*
X65721Y115290D01*
X65344Y116200D01*
X64745Y116982D01*
X63963Y117581D01*
X63054Y117958D01*
X62077Y118087D01*
X61101Y117958D01*
X60728Y117804D01*
X56729Y121802D01*
X56727Y121804D01*
X56725Y121807D01*
X50999Y127488D01*
X50998Y127988D01*
X61756Y138746D01*
X93766D01*
X93815Y138247D01*
X93649Y138214D01*
X93047Y138094D01*
X92265Y137572D01*
X91743Y136790D01*
X91560Y135869D01*
X91743Y134947D01*
X92265Y134166D01*
X93047Y133643D01*
X93968Y133460D01*
X94890Y133643D01*
X95672Y134166D01*
X96194Y134947D01*
X96377Y135869D01*
X96194Y136790D01*
X95672Y137572D01*
X94890Y138094D01*
X94288Y138214D01*
X94122Y138247D01*
X94171Y138746D01*
X112559D01*
X113061Y138846D01*
X113487Y139131D01*
X121397Y147040D01*
X140905D01*
X141165Y146650D01*
X141947Y146128D01*
X142868Y145945D01*
X143790Y146128D01*
X144572Y146650D01*
X145094Y147431D01*
X145277Y148353D01*
X145094Y149275D01*
X144572Y150056D01*
X143790Y150578D01*
X142868Y150761D01*
X141947Y150578D01*
X141165Y150056D01*
X140905Y149666D01*
X120853D01*
X120351Y149566D01*
X119925Y149281D01*
X112015Y141372D01*
X61213D01*
X60710Y141272D01*
X60284Y140987D01*
X48887Y129590D01*
X41184Y137294D01*
X41183Y137294D01*
X33182Y145295D01*
Y173342D01*
X34016Y174176D01*
X34539D01*
Y172236D01*
X40657D01*
Y179142D01*
X34539D01*
Y177202D01*
X33389D01*
X32810Y177087D01*
X32319Y176759D01*
X31859Y176818D01*
X29882Y178795D01*
Y183039D01*
X30072Y183166D01*
X30594Y183947D01*
X30777Y184869D01*
X30594Y185790D01*
X30072Y186572D01*
X29290Y187094D01*
X28368Y187277D01*
D02*
G37*
G36*
X249822Y174055D02*
X246949D01*
Y171182D01*
X246996Y171188D01*
X247958Y171587D01*
X248784Y172220D01*
X249417Y173046D01*
X249816Y174007D01*
X249822Y174055D01*
D02*
G37*
G36*
X244980D02*
X242107D01*
X242113Y174007D01*
X242512Y173046D01*
X243145Y172220D01*
X243971Y171587D01*
X244933Y171188D01*
X244980Y171182D01*
Y174055D01*
D02*
G37*
G36*
X231701Y170382D02*
X224795D01*
Y164264D01*
X231701D01*
Y165109D01*
X232280D01*
X232445Y164999D01*
X233366Y164816D01*
X234288Y164999D01*
X235069Y165521D01*
X235591Y166303D01*
X235775Y167224D01*
X235591Y168146D01*
X235069Y168928D01*
X234288Y169450D01*
X233366Y169633D01*
X232445Y169450D01*
X232280Y169340D01*
X231701D01*
Y170382D01*
D02*
G37*
G36*
X72441Y180610D02*
X64961D01*
Y173130D01*
X66400D01*
X66591Y172668D01*
X63890Y169968D01*
X63563Y169477D01*
X63447Y168898D01*
X63447Y168898D01*
Y167521D01*
X61950D01*
Y160616D01*
X68068D01*
Y167521D01*
X66474D01*
Y168271D01*
X69771Y171568D01*
X70099Y172059D01*
X70214Y172638D01*
X70214Y172638D01*
Y173130D01*
X72441D01*
Y180610D01*
D02*
G37*
G36*
X12106Y172174D02*
X10968Y172062D01*
X9873Y171730D01*
X8864Y171190D01*
X7980Y170465D01*
X7254Y169580D01*
X6715Y168572D01*
X6383Y167477D01*
X6271Y166339D01*
X6383Y165200D01*
X6715Y164105D01*
X7254Y163097D01*
X7980Y162213D01*
X8864Y161487D01*
X9873Y160948D01*
X10968Y160616D01*
X12106Y160503D01*
X13245Y160616D01*
X14339Y160948D01*
X15348Y161487D01*
X16232Y162213D01*
X16958Y163097D01*
X17497Y164105D01*
X17829Y165200D01*
X17942Y166339D01*
X17829Y167477D01*
X17497Y168572D01*
X16958Y169580D01*
X16232Y170465D01*
X15348Y171190D01*
X14339Y171730D01*
X13245Y172062D01*
X12106Y172174D01*
D02*
G37*
G36*
X226673Y259796D02*
X225697Y259667D01*
X224787Y259291D01*
X224006Y258691D01*
X223406Y257910D01*
X223029Y257000D01*
X222901Y256024D01*
X223029Y255047D01*
X223406Y254137D01*
X224006Y253356D01*
X224787Y252757D01*
X225697Y252380D01*
X226673Y252251D01*
X227650Y252380D01*
X228559Y252757D01*
X229341Y253356D01*
X229940Y254137D01*
X230178Y254711D01*
X231720D01*
X253215Y233216D01*
Y173378D01*
X238630Y158793D01*
X225937D01*
X221499Y163231D01*
X221073Y163516D01*
X220571Y163616D01*
X183516D01*
X181046Y166086D01*
X180620Y166370D01*
X180118Y166470D01*
X158657D01*
X158396Y166860D01*
X157615Y167383D01*
X156693Y167566D01*
X155771Y167383D01*
X154990Y166860D01*
X154468Y166079D01*
X154284Y165157D01*
X154323Y164966D01*
X153852Y164771D01*
X153573Y165187D01*
X152792Y165709D01*
X151870Y165893D01*
X150948Y165709D01*
X150167Y165187D01*
X149645Y164406D01*
X149462Y163484D01*
X149645Y162563D01*
X149774Y162370D01*
X149439Y162038D01*
X148658Y162560D01*
X147736Y162743D01*
X146815Y162560D01*
X146033Y162038D01*
X145511Y161256D01*
X145328Y160335D01*
X145511Y159413D01*
X146033Y158632D01*
X146815Y158109D01*
X147736Y157926D01*
X148069Y157992D01*
X148264Y157521D01*
X148100Y157412D01*
X147578Y156630D01*
X147395Y155709D01*
X147578Y154787D01*
X148100Y154006D01*
X148881Y153483D01*
X149750Y153311D01*
X149803Y153300D01*
X150131Y152856D01*
X150052Y152461D01*
X150235Y151539D01*
X150758Y150758D01*
X151539Y150235D01*
X152461Y150052D01*
X153382Y150235D01*
X154164Y150758D01*
X154686Y151539D01*
X154869Y152461D01*
X154686Y153382D01*
X154680Y153391D01*
X155684Y154396D01*
X168189D01*
X187824Y134760D01*
Y108017D01*
X187893Y107668D01*
X188091Y107373D01*
X195349Y100115D01*
Y53159D01*
X195418Y52810D01*
X195615Y52515D01*
X205960Y42171D01*
X206255Y41973D01*
X206604Y41904D01*
X210371D01*
X210373Y41893D01*
X210895Y41112D01*
X211677Y40590D01*
X212598Y40407D01*
X213520Y40590D01*
X214301Y41112D01*
X214824Y41893D01*
X215007Y42815D01*
X214824Y43737D01*
X214301Y44518D01*
X213520Y45040D01*
X212598Y45223D01*
X211677Y45040D01*
X210895Y44518D01*
X210373Y43737D01*
X210371Y43726D01*
X206981D01*
X197171Y53536D01*
Y100492D01*
X197102Y100841D01*
X196904Y101137D01*
X189646Y108395D01*
Y135138D01*
X189577Y135486D01*
X189380Y135782D01*
X169210Y155951D01*
X168915Y156149D01*
X168566Y156218D01*
X155307D01*
X154958Y156149D01*
X154663Y155951D01*
X153391Y154680D01*
X153382Y154686D01*
X152514Y154859D01*
X152461Y154869D01*
X152133Y155314D01*
X152212Y155709D01*
X152028Y156630D01*
X152022Y156639D01*
X152641Y157258D01*
X169111D01*
X212475Y113894D01*
Y77946D01*
X204179Y69650D01*
X203981Y69354D01*
X203912Y69005D01*
Y52658D01*
X203981Y52309D01*
X204179Y52013D01*
X206167Y50025D01*
X205846Y49544D01*
X205662Y48622D01*
X205846Y47700D01*
X206368Y46919D01*
X207149Y46397D01*
X208071Y46214D01*
X208993Y46397D01*
X209774Y46919D01*
X210296Y47700D01*
X210479Y48622D01*
X210296Y49544D01*
X209774Y50325D01*
X208993Y50847D01*
X208071Y51030D01*
X207794Y50975D01*
X205734Y53035D01*
Y68628D01*
X207510Y70404D01*
X207972Y70213D01*
Y59277D01*
X207962Y59275D01*
X207181Y58753D01*
X206659Y57972D01*
X206475Y57050D01*
X206659Y56128D01*
X207181Y55347D01*
X207962Y54825D01*
X208884Y54642D01*
X209805Y54825D01*
X210587Y55347D01*
X211109Y56128D01*
X211292Y57050D01*
X211109Y57972D01*
X210587Y58753D01*
X209805Y59275D01*
X209795Y59277D01*
Y70727D01*
X215418Y76349D01*
X215615Y76645D01*
X215684Y76994D01*
Y114846D01*
X215615Y115195D01*
X215418Y115491D01*
X170097Y160811D01*
X170305Y161311D01*
X175097D01*
X219857Y116552D01*
Y65141D01*
X216388Y61673D01*
X215891Y61722D01*
X215679Y62038D01*
X214898Y62560D01*
X213976Y62743D01*
X213055Y62560D01*
X212273Y62038D01*
X211751Y61256D01*
X211568Y60335D01*
X211751Y59413D01*
X212273Y58632D01*
X213055Y58109D01*
X213976Y57926D01*
X214898Y58109D01*
X215679Y58632D01*
X216201Y59413D01*
X216204Y59423D01*
X216339D01*
X216687Y59493D01*
X216983Y59690D01*
X221412Y64119D01*
X221610Y64415D01*
X221679Y64764D01*
Y116929D01*
X221610Y117278D01*
X221412Y117573D01*
X176119Y162866D01*
X175823Y163064D01*
X175475Y163133D01*
X159103D01*
X158831Y163633D01*
X158967Y163845D01*
X179574D01*
X182044Y161375D01*
X182470Y161091D01*
X182972Y160991D01*
X220027D01*
X223983Y157035D01*
Y136909D01*
X224083Y136407D01*
X224367Y135981D01*
X229485Y130863D01*
X229911Y130579D01*
X230413Y130479D01*
X235241D01*
X235502Y130088D01*
X235991Y129762D01*
Y119004D01*
X233949D01*
Y112098D01*
X235695D01*
Y108374D01*
X233949D01*
Y101469D01*
X240067D01*
Y108374D01*
X238320D01*
Y112098D01*
X240067D01*
Y119004D01*
X238616D01*
Y129893D01*
X238908Y130088D01*
X239430Y130870D01*
X239613Y131791D01*
X239430Y132713D01*
X238908Y133494D01*
X238126Y134017D01*
X237205Y134200D01*
X236283Y134017D01*
X235502Y133494D01*
X235241Y133104D01*
X230957D01*
X226608Y137453D01*
Y156168D01*
X239173D01*
X239675Y156268D01*
X240101Y156552D01*
X255456Y171906D01*
X255740Y172332D01*
X255840Y172835D01*
Y233760D01*
X255740Y234262D01*
X255456Y234688D01*
X233192Y256952D01*
X232766Y257236D01*
X232264Y257336D01*
X230178D01*
X229940Y257910D01*
X229341Y258691D01*
X228559Y259291D01*
X227650Y259667D01*
X226673Y259796D01*
D02*
G37*
G36*
X92323Y163531D02*
X91401Y163347D01*
X90620Y162825D01*
X90098Y162044D01*
X89914Y161122D01*
X90098Y160200D01*
X90620Y159419D01*
X91401Y158897D01*
X92323Y158714D01*
X93244Y158897D01*
X94026Y159419D01*
X94548Y160200D01*
X94731Y161122D01*
X94548Y162044D01*
X94026Y162825D01*
X93244Y163347D01*
X92323Y163531D01*
D02*
G37*
G36*
X60587Y167521D02*
X54469D01*
Y160616D01*
X54873D01*
Y159846D01*
X54763Y159681D01*
X54580Y158760D01*
X54763Y157838D01*
X55285Y157057D01*
X56067Y156535D01*
X56988Y156351D01*
X57910Y156535D01*
X58691Y157057D01*
X59213Y157838D01*
X59397Y158760D01*
X59213Y159681D01*
X59104Y159846D01*
Y160616D01*
X60587D01*
Y167521D01*
D02*
G37*
G36*
X46169Y159653D02*
X39264D01*
Y154149D01*
X38764Y153743D01*
X38234Y153849D01*
X37313Y153665D01*
X36531Y153143D01*
X36009Y152362D01*
X35826Y151440D01*
X36009Y150519D01*
X36531Y149737D01*
X37313Y149215D01*
X38234Y149032D01*
X39156Y149215D01*
X39937Y149737D01*
X40064Y149927D01*
X41696D01*
X41696Y149927D01*
X42275Y150042D01*
X42766Y150370D01*
X43787Y151391D01*
X43787Y151391D01*
X44115Y151882D01*
X44230Y152461D01*
Y153535D01*
X46169D01*
Y159653D01*
D02*
G37*
G36*
X22967Y179877D02*
X22045Y179694D01*
X21264Y179172D01*
X20742Y178390D01*
X20558Y177469D01*
X20742Y176547D01*
X21264Y175766D01*
X21437Y175650D01*
X21083Y137054D01*
X21085Y137047D01*
X21083Y137040D01*
X21140Y136757D01*
X21193Y136474D01*
X21197Y136468D01*
X21199Y136461D01*
X21359Y136221D01*
X21517Y135980D01*
X21523Y135976D01*
X21527Y135970D01*
X54253Y103244D01*
X54744Y102916D01*
X55323Y102801D01*
X55323Y102801D01*
X58656D01*
X58810Y102428D01*
X59410Y101647D01*
X60191Y101047D01*
X61101Y100670D01*
X62077Y100542D01*
X63054Y100670D01*
X63963Y101047D01*
X64745Y101647D01*
X65344Y102428D01*
X65499Y102801D01*
X65633D01*
X65633Y102801D01*
X66212Y102916D01*
X66703Y103244D01*
X79954Y116495D01*
X82516D01*
Y115050D01*
X89421D01*
Y121168D01*
X87181D01*
Y124035D01*
X91361Y128215D01*
X117815D01*
X118317Y128315D01*
X118743Y128599D01*
X129579Y139435D01*
X142717D01*
X143219Y139535D01*
X143645Y139820D01*
X148081Y144256D01*
X152113D01*
X152374Y143866D01*
X153155Y143343D01*
X154077Y143160D01*
X154999Y143343D01*
X155780Y143866D01*
X156302Y144647D01*
X156485Y145569D01*
X156302Y146490D01*
X155780Y147272D01*
X154999Y147794D01*
X154077Y147977D01*
X153155Y147794D01*
X152374Y147272D01*
X152113Y146881D01*
X147537D01*
X147035Y146781D01*
X146609Y146497D01*
X142173Y142061D01*
X129035D01*
X128533Y141961D01*
X128107Y141676D01*
X117271Y130840D01*
X90818D01*
X90315Y130740D01*
X89890Y130456D01*
X84940Y125506D01*
X84656Y125081D01*
X84556Y124578D01*
Y121168D01*
X82516D01*
Y119522D01*
X79327D01*
X78748Y119407D01*
X78258Y119079D01*
X78257Y119079D01*
X65716Y106537D01*
X65052Y106581D01*
X64745Y106982D01*
X63963Y107581D01*
X63054Y107958D01*
X62077Y108087D01*
X61101Y107958D01*
X60191Y107581D01*
X59410Y106982D01*
X58810Y106200D01*
X58656Y105827D01*
X55950D01*
X24116Y137661D01*
X24464Y175628D01*
X24670Y175766D01*
X25192Y176547D01*
X25375Y177469D01*
X25192Y178390D01*
X24670Y179172D01*
X23889Y179694D01*
X22967Y179877D01*
D02*
G37*
G36*
X70965Y152901D02*
X70043Y152717D01*
X69261Y152195D01*
X68739Y151414D01*
X68556Y150492D01*
X68739Y149570D01*
X69261Y148789D01*
X70043Y148267D01*
X70965Y148084D01*
X71188Y148128D01*
X73831Y145485D01*
X73831Y145485D01*
X74322Y145157D01*
X74902Y145042D01*
X74902Y145042D01*
X78732D01*
Y143102D01*
X84850D01*
Y150008D01*
X78732D01*
Y148068D01*
X75528D01*
X73329Y150268D01*
X73373Y150492D01*
X73190Y151414D01*
X72668Y152195D01*
X71886Y152717D01*
X70965Y152901D01*
D02*
G37*
G36*
X235302Y147366D02*
X234380Y147183D01*
X233598Y146660D01*
X233076Y145879D01*
X232893Y144957D01*
X233076Y144036D01*
X233598Y143254D01*
X234380Y142732D01*
X235302Y142549D01*
X236223Y142732D01*
X237005Y143254D01*
X237527Y144036D01*
X237710Y144957D01*
X237527Y145879D01*
X237005Y146660D01*
X236223Y147183D01*
X235302Y147366D01*
D02*
G37*
G36*
X246850Y147290D02*
X245929Y147107D01*
X245147Y146585D01*
X244625Y145804D01*
X244442Y144882D01*
X244625Y143960D01*
X245147Y143179D01*
X245929Y142657D01*
X246850Y142473D01*
X247772Y142657D01*
X248553Y143179D01*
X249076Y143960D01*
X249259Y144882D01*
X249076Y145804D01*
X248553Y146585D01*
X247772Y147107D01*
X246850Y147290D01*
D02*
G37*
G36*
X168430Y150454D02*
X167493Y150268D01*
X166699Y149738D01*
X166169Y148944D01*
X165983Y148007D01*
X166169Y147071D01*
X166699Y146277D01*
X167632Y145345D01*
Y129068D01*
X161016D01*
Y128513D01*
X156996D01*
Y129043D01*
X150091D01*
Y122925D01*
X156996D01*
Y123480D01*
X161016D01*
Y122950D01*
X167921D01*
Y123467D01*
X173417D01*
Y122925D01*
X180323D01*
Y129043D01*
X173417D01*
Y128501D01*
X172526D01*
Y146358D01*
X172339Y147295D01*
X171809Y148089D01*
X170160Y149738D01*
X169366Y150268D01*
X168430Y150454D01*
D02*
G37*
G36*
X141368Y130377D02*
X140447Y130194D01*
X139665Y129672D01*
X139143Y128890D01*
X138960Y127969D01*
X139143Y127047D01*
X139665Y126266D01*
X140447Y125743D01*
X141368Y125560D01*
X142290Y125743D01*
X143072Y126266D01*
X143594Y127047D01*
X143777Y127969D01*
X143594Y128890D01*
X143072Y129672D01*
X142290Y130194D01*
X141368Y130377D01*
D02*
G37*
G36*
X63061Y128172D02*
Y125298D01*
X65934D01*
X65928Y125346D01*
X65530Y126308D01*
X64896Y127133D01*
X64071Y127767D01*
X63109Y128165D01*
X63061Y128172D01*
D02*
G37*
G36*
X61093D02*
X61045Y128165D01*
X60084Y127767D01*
X59258Y127133D01*
X58624Y126308D01*
X58226Y125346D01*
X58220Y125298D01*
X61093D01*
Y128172D01*
D02*
G37*
G36*
X65934Y123330D02*
X63061D01*
Y120457D01*
X63109Y120463D01*
X64071Y120861D01*
X64896Y121495D01*
X65530Y122321D01*
X65928Y123282D01*
X65934Y123330D01*
D02*
G37*
G36*
X61093D02*
X58220D01*
X58226Y123282D01*
X58624Y122321D01*
X59258Y121495D01*
X60084Y120861D01*
X61045Y120463D01*
X61093Y120457D01*
Y123330D01*
D02*
G37*
G36*
X244094Y123865D02*
X243173Y123682D01*
X242391Y123160D01*
X241869Y122378D01*
X241686Y121457D01*
X241869Y120535D01*
X242380Y119770D01*
Y119004D01*
X241429D01*
Y112098D01*
X247547D01*
Y119004D01*
X245809D01*
Y119770D01*
X246320Y120535D01*
X246503Y121457D01*
X246320Y122378D01*
X245797Y123160D01*
X245016Y123682D01*
X244094Y123865D01*
D02*
G37*
G36*
X89421Y113687D02*
X82516D01*
Y107569D01*
X83515D01*
Y105872D01*
X83701Y104935D01*
X84232Y104141D01*
X85026Y103611D01*
X85962Y103425D01*
X86899Y103611D01*
X87692Y104141D01*
X88223Y104935D01*
X88409Y105872D01*
Y107569D01*
X89421D01*
Y113687D01*
D02*
G37*
G36*
X135039Y131936D02*
X134118Y131753D01*
X133336Y131231D01*
X132814Y130449D01*
X132631Y129528D01*
X132814Y128606D01*
X133125Y128141D01*
Y110143D01*
X126372Y103391D01*
X124614D01*
Y104535D01*
X117709D01*
Y103391D01*
X112697D01*
X112697Y103391D01*
X111964Y103245D01*
X111343Y102830D01*
X111343Y102830D01*
X110132Y101620D01*
X106150D01*
X106121Y101689D01*
X105522Y102471D01*
X104741Y103070D01*
X103831Y103447D01*
X102854Y103576D01*
X101878Y103447D01*
X100968Y103070D01*
X100187Y102471D01*
X99587Y101689D01*
X99211Y100779D01*
X99082Y99803D01*
X99211Y98827D01*
X99587Y97917D01*
X100187Y97136D01*
X100968Y96536D01*
X101878Y96159D01*
X102854Y96031D01*
X103831Y96159D01*
X104741Y96536D01*
X105522Y97136D01*
X106024Y97790D01*
X110925D01*
X110925Y97790D01*
X111658Y97936D01*
X112279Y98351D01*
X113490Y99562D01*
X117709D01*
Y98417D01*
X124614D01*
Y99562D01*
X127165D01*
X127165Y99562D01*
X127898Y99707D01*
X128519Y100122D01*
X136393Y107996D01*
X136393Y107996D01*
X136808Y108618D01*
X136954Y109350D01*
X136954Y109351D01*
Y128141D01*
X137265Y128606D01*
X137448Y129528D01*
X137265Y130449D01*
X136742Y131231D01*
X135961Y131753D01*
X135039Y131936D01*
D02*
G37*
G36*
X150008Y103551D02*
X143890D01*
Y102630D01*
X137027D01*
X136749Y102816D01*
X135827Y102999D01*
X134905Y102816D01*
X134124Y102294D01*
X133602Y101512D01*
X133418Y100591D01*
X133602Y99669D01*
X134124Y98887D01*
X134905Y98365D01*
X135827Y98182D01*
X136749Y98365D01*
X137027Y98551D01*
X143890D01*
Y96646D01*
X150008D01*
Y103551D01*
D02*
G37*
G36*
X156996Y121563D02*
X150091D01*
Y115445D01*
X152408D01*
Y110630D01*
X152408Y110630D01*
X152585Y109744D01*
X153087Y108992D01*
X153294Y108785D01*
Y106665D01*
X153202Y106201D01*
X153385Y105279D01*
X153907Y104498D01*
X154576Y104051D01*
X154455Y103551D01*
X151370D01*
Y96646D01*
X157488D01*
Y97356D01*
X159547D01*
X160484Y97542D01*
X161277Y98073D01*
X161808Y98867D01*
X161994Y99803D01*
X161808Y100740D01*
X161277Y101533D01*
X160484Y102064D01*
X159547Y102250D01*
X157488D01*
Y103551D01*
X156766D01*
X156645Y104051D01*
X157313Y104498D01*
X157835Y105279D01*
X158019Y106201D01*
X157926Y106665D01*
Y109744D01*
X157926Y109744D01*
X157750Y110630D01*
X157248Y111382D01*
X157248Y111382D01*
X157041Y111589D01*
Y117717D01*
X157041Y117717D01*
X156996Y117940D01*
Y121563D01*
D02*
G37*
G36*
X65817Y98054D02*
X58337D01*
Y90574D01*
X65817D01*
Y98054D01*
D02*
G37*
G36*
X106595Y93543D02*
X99114D01*
Y86063D01*
X106595D01*
Y93543D01*
D02*
G37*
G36*
X81201Y83394D02*
X80062Y83282D01*
X78968Y82950D01*
X77959Y82411D01*
X77075Y81685D01*
X76349Y80801D01*
X75810Y79792D01*
X75478Y78697D01*
X75366Y77559D01*
X75478Y76421D01*
X75810Y75326D01*
X76349Y74317D01*
X77075Y73433D01*
X77959Y72707D01*
X78968Y72168D01*
X80062Y71836D01*
X81201Y71724D01*
X82339Y71836D01*
X83434Y72168D01*
X84443Y72707D01*
X85327Y73433D01*
X86053Y74317D01*
X86592Y75326D01*
X86924Y76421D01*
X87036Y77559D01*
X86924Y78697D01*
X86592Y79792D01*
X86053Y80801D01*
X85327Y81685D01*
X84443Y82411D01*
X83434Y82950D01*
X82339Y83282D01*
X81201Y83394D01*
D02*
G37*
G36*
X250394Y68649D02*
X249472Y68465D01*
X248691Y67943D01*
X248169Y67162D01*
X247985Y66240D01*
X248169Y65319D01*
X248691Y64537D01*
X249472Y64015D01*
X250394Y63832D01*
X251315Y64015D01*
X252097Y64537D01*
X252619Y65319D01*
X252802Y66240D01*
X252619Y67162D01*
X252097Y67943D01*
X251315Y68465D01*
X250394Y68649D01*
D02*
G37*
G36*
X8661Y64810D02*
X7740Y64627D01*
X6958Y64105D01*
X6436Y63323D01*
X6253Y62402D01*
X6436Y61480D01*
X6958Y60698D01*
X7740Y60176D01*
X8661Y59993D01*
X9583Y60176D01*
X10364Y60698D01*
X10887Y61480D01*
X11070Y62402D01*
X10887Y63323D01*
X10364Y64105D01*
X9583Y64627D01*
X8661Y64810D01*
D02*
G37*
G36*
X18110Y37349D02*
X17189Y37166D01*
X16407Y36644D01*
X15885Y35863D01*
X15702Y34941D01*
X15885Y34019D01*
X16407Y33238D01*
X17189Y32716D01*
X18110Y32533D01*
X19032Y32716D01*
X19813Y33238D01*
X20335Y34019D01*
X20519Y34941D01*
X20335Y35863D01*
X19813Y36644D01*
X19032Y37166D01*
X18110Y37349D01*
D02*
G37*
G36*
X8169Y37251D02*
X7248Y37068D01*
X6466Y36546D01*
X5944Y35764D01*
X5761Y34843D01*
X5944Y33921D01*
X6466Y33140D01*
X7248Y32617D01*
X8169Y32434D01*
X9091Y32617D01*
X9872Y33140D01*
X10394Y33921D01*
X10578Y34843D01*
X10394Y35764D01*
X9872Y36546D01*
X9091Y37068D01*
X8169Y37251D01*
D02*
G37*
G36*
X61319Y32231D02*
X60397Y32048D01*
X59616Y31526D01*
X59094Y30744D01*
X58910Y29823D01*
X59094Y28901D01*
X59616Y28120D01*
X60397Y27598D01*
X61319Y27414D01*
X62241Y27598D01*
X63022Y28120D01*
X63544Y28901D01*
X63727Y29823D01*
X63544Y30744D01*
X63022Y31526D01*
X62241Y32048D01*
X61319Y32231D01*
D02*
G37*
G36*
X53543D02*
X52622Y32048D01*
X51840Y31526D01*
X51318Y30744D01*
X51135Y29823D01*
X51318Y28901D01*
X51840Y28120D01*
X52622Y27598D01*
X53543Y27414D01*
X54465Y27598D01*
X55246Y28120D01*
X55768Y28901D01*
X55952Y29823D01*
X55768Y30744D01*
X55246Y31526D01*
X54465Y32048D01*
X53543Y32231D01*
D02*
G37*
G36*
X45472D02*
X44551Y32048D01*
X43769Y31526D01*
X43247Y30744D01*
X43064Y29823D01*
X43247Y28901D01*
X43769Y28120D01*
X44551Y27598D01*
X45472Y27414D01*
X46394Y27598D01*
X47175Y28120D01*
X47698Y28901D01*
X47881Y29823D01*
X47698Y30744D01*
X47175Y31526D01*
X46394Y32048D01*
X45472Y32231D01*
D02*
G37*
G36*
X36122D02*
X35200Y32048D01*
X34419Y31526D01*
X33897Y30744D01*
X33714Y29823D01*
X33897Y28901D01*
X34419Y28120D01*
X35200Y27598D01*
X36122Y27414D01*
X37044Y27598D01*
X37825Y28120D01*
X38347Y28901D01*
X38530Y29823D01*
X38347Y30744D01*
X37825Y31526D01*
X37044Y32048D01*
X36122Y32231D01*
D02*
G37*
G36*
X28051D02*
X27130Y32048D01*
X26348Y31526D01*
X25826Y30744D01*
X25643Y29823D01*
X25826Y28901D01*
X26348Y28120D01*
X27130Y27598D01*
X28051Y27414D01*
X28973Y27598D01*
X29754Y28120D01*
X30276Y28901D01*
X30460Y29823D01*
X30276Y30744D01*
X29754Y31526D01*
X28973Y32048D01*
X28051Y32231D01*
D02*
G37*
G36*
X21468Y29577D02*
X20547Y29394D01*
X19766Y28872D01*
X19243Y28090D01*
X19060Y27169D01*
X19243Y26247D01*
X19766Y25466D01*
X20547Y24943D01*
X21468Y24760D01*
X22390Y24943D01*
X23171Y25466D01*
X23694Y26247D01*
X23877Y27169D01*
X23694Y28090D01*
X23171Y28872D01*
X22390Y29394D01*
X21468Y29577D01*
D02*
G37*
G36*
X8568Y28877D02*
X7647Y28694D01*
X6865Y28172D01*
X6343Y27390D01*
X6160Y26469D01*
X6343Y25547D01*
X6865Y24766D01*
X7647Y24243D01*
X8568Y24060D01*
X9490Y24243D01*
X10272Y24766D01*
X10794Y25547D01*
X10977Y26469D01*
X10794Y27390D01*
X10272Y28172D01*
X9490Y28694D01*
X8568Y28877D01*
D02*
G37*
G36*
X160132Y26476D02*
X159210Y26293D01*
X158429Y25771D01*
X157907Y24990D01*
X157723Y24068D01*
X157907Y23146D01*
X158429Y22365D01*
X159210Y21843D01*
X160132Y21659D01*
X161054Y21843D01*
X161835Y22365D01*
X162357Y23146D01*
X162540Y24068D01*
X162357Y24990D01*
X161835Y25771D01*
X161054Y26293D01*
X160132Y26476D01*
D02*
G37*
G36*
X61909Y23865D02*
X60988Y23682D01*
X60206Y23160D01*
X59684Y22378D01*
X59501Y21457D01*
X59684Y20535D01*
X60206Y19754D01*
X60988Y19231D01*
X61909Y19048D01*
X62831Y19231D01*
X63613Y19754D01*
X64135Y20535D01*
X64318Y21457D01*
X64135Y22378D01*
X63613Y23160D01*
X62831Y23682D01*
X61909Y23865D01*
D02*
G37*
G36*
X54035D02*
X53114Y23682D01*
X52332Y23160D01*
X51810Y22378D01*
X51627Y21457D01*
X51810Y20535D01*
X52332Y19754D01*
X53114Y19231D01*
X54035Y19048D01*
X54957Y19231D01*
X55739Y19754D01*
X56261Y20535D01*
X56444Y21457D01*
X56261Y22378D01*
X55739Y23160D01*
X54957Y23682D01*
X54035Y23865D01*
D02*
G37*
G36*
X45000D02*
X44078Y23682D01*
X43297Y23160D01*
X42775Y22378D01*
X42591Y21457D01*
X42775Y20535D01*
X43297Y19754D01*
X44078Y19231D01*
X45000Y19048D01*
X45921Y19231D01*
X46703Y19754D01*
X47225Y20535D01*
X47408Y21457D01*
X47225Y22378D01*
X46703Y23160D01*
X45921Y23682D01*
X45000Y23865D01*
D02*
G37*
G36*
X36319D02*
X35397Y23682D01*
X34616Y23160D01*
X34094Y22378D01*
X33910Y21457D01*
X34094Y20535D01*
X34616Y19754D01*
X35397Y19231D01*
X36319Y19048D01*
X37241Y19231D01*
X38022Y19754D01*
X38544Y20535D01*
X38727Y21457D01*
X38544Y22378D01*
X38022Y23160D01*
X37241Y23682D01*
X36319Y23865D01*
D02*
G37*
G36*
X28150D02*
X27228Y23682D01*
X26447Y23160D01*
X25925Y22378D01*
X25741Y21457D01*
X25925Y20535D01*
X26447Y19754D01*
X27228Y19231D01*
X28150Y19048D01*
X29071Y19231D01*
X29853Y19754D01*
X30375Y20535D01*
X30558Y21457D01*
X30375Y22378D01*
X29853Y23160D01*
X29071Y23682D01*
X28150Y23865D01*
D02*
G37*
G36*
X75221Y25487D02*
X68316D01*
Y19369D01*
X69456D01*
Y17768D01*
X69648Y16805D01*
X70193Y15989D01*
X71010Y15443D01*
X71973Y15252D01*
X72936Y15443D01*
X73753Y15989D01*
X74299Y16805D01*
X74490Y17768D01*
Y19369D01*
X75221D01*
Y25487D01*
D02*
G37*
G36*
X262500Y26504D02*
X261362Y26392D01*
X260267Y26060D01*
X259258Y25521D01*
X258374Y24795D01*
X257648Y23911D01*
X257109Y22902D01*
X256777Y21808D01*
X256665Y20669D01*
X256777Y19531D01*
X257109Y18436D01*
X257648Y17427D01*
X258374Y16543D01*
X259258Y15818D01*
X260267Y15278D01*
X261362Y14946D01*
X262500Y14834D01*
X263638Y14946D01*
X264733Y15278D01*
X265742Y15818D01*
X266626Y16543D01*
X267352Y17427D01*
X267891Y18436D01*
X268223Y19531D01*
X268335Y20669D01*
X268223Y21808D01*
X267891Y22902D01*
X267352Y23911D01*
X266626Y24795D01*
X265742Y25521D01*
X264733Y26060D01*
X263638Y26392D01*
X262500Y26504D01*
D02*
G37*
G36*
X96457D02*
X95318Y26392D01*
X94224Y26060D01*
X93215Y25521D01*
X92331Y24795D01*
X91605Y23911D01*
X91066Y22902D01*
X90734Y21808D01*
X90622Y20669D01*
X90734Y19531D01*
X91066Y18436D01*
X91605Y17427D01*
X92331Y16543D01*
X93215Y15818D01*
X94224Y15278D01*
X95318Y14946D01*
X96457Y14834D01*
X97595Y14946D01*
X98690Y15278D01*
X99699Y15818D01*
X100583Y16543D01*
X101309Y17427D01*
X101848Y18436D01*
X102180Y19531D01*
X102292Y20669D01*
X102180Y21808D01*
X101848Y22902D01*
X101309Y23911D01*
X100583Y24795D01*
X99699Y25521D01*
X98690Y26060D01*
X97595Y26392D01*
X96457Y26504D01*
D02*
G37*
G36*
X61713Y15302D02*
X60791Y15119D01*
X60009Y14597D01*
X59487Y13815D01*
X59304Y12894D01*
X59487Y11972D01*
X60009Y11191D01*
X60791Y10669D01*
X61713Y10485D01*
X62634Y10669D01*
X63416Y11191D01*
X63938Y11972D01*
X64121Y12894D01*
X63938Y13815D01*
X63416Y14597D01*
X62634Y15119D01*
X61713Y15302D01*
D02*
G37*
G36*
X53445D02*
X52523Y15119D01*
X51742Y14597D01*
X51220Y13815D01*
X51036Y12894D01*
X51220Y11972D01*
X51742Y11191D01*
X52523Y10669D01*
X53445Y10485D01*
X54367Y10669D01*
X55148Y11191D01*
X55670Y11972D01*
X55853Y12894D01*
X55670Y13815D01*
X55148Y14597D01*
X54367Y15119D01*
X53445Y15302D01*
D02*
G37*
G36*
X44783D02*
X43862Y15119D01*
X43080Y14597D01*
X42558Y13815D01*
X42375Y12894D01*
X42558Y11972D01*
X43080Y11191D01*
X43862Y10669D01*
X44783Y10485D01*
X45705Y10669D01*
X46486Y11191D01*
X47009Y11972D01*
X47192Y12894D01*
X47009Y13815D01*
X46486Y14597D01*
X45705Y15119D01*
X44783Y15302D01*
D02*
G37*
G36*
X36024D02*
X35102Y15119D01*
X34321Y14597D01*
X33799Y13815D01*
X33615Y12894D01*
X33799Y11972D01*
X34321Y11191D01*
X35102Y10669D01*
X36024Y10485D01*
X36945Y10669D01*
X37727Y11191D01*
X38249Y11972D01*
X38432Y12894D01*
X38249Y13815D01*
X37727Y14597D01*
X36945Y15119D01*
X36024Y15302D01*
D02*
G37*
G36*
X28346D02*
X27425Y15119D01*
X26643Y14597D01*
X26121Y13815D01*
X25938Y12894D01*
X26121Y11972D01*
X26643Y11191D01*
X27425Y10669D01*
X28346Y10485D01*
X29268Y10669D01*
X30049Y11191D01*
X30572Y11972D01*
X30755Y12894D01*
X30572Y13815D01*
X30049Y14597D01*
X29268Y15119D01*
X28346Y15302D01*
D02*
G37*
G36*
X11811Y14328D02*
X10848Y14136D01*
X10031Y13591D01*
X9486Y12774D01*
X9294Y11811D01*
X9486Y10848D01*
X10031Y10031D01*
X10848Y9486D01*
X11811Y9294D01*
X12774Y9486D01*
X13591Y10031D01*
X14136Y10848D01*
X14328Y11811D01*
X14136Y12774D01*
X13591Y13591D01*
X12774Y14136D01*
X11811Y14328D01*
D02*
G37*
G36*
X213779Y15354D02*
X182677D01*
Y8661D01*
X213779D01*
Y15354D01*
D02*
G37*
%LPD*%
D11*
X208884Y57050D02*
Y71104D01*
X214773Y76994D01*
Y114846D01*
X169285Y160335D02*
X214773Y114846D01*
X147736Y160335D02*
X169285D01*
X220768Y64764D02*
Y116929D01*
X216339Y60335D02*
X220768Y64764D01*
X213976Y60335D02*
X216339D01*
X155423Y162795D02*
X155996Y162222D01*
X152559Y162795D02*
X155423D01*
X151870Y163484D02*
X152559Y162795D01*
X155996Y162222D02*
X175475D01*
X196260Y53159D02*
Y100492D01*
Y53159D02*
X206604Y42815D01*
X175475Y162222D02*
X220768Y116929D01*
X240551Y206299D02*
X240945Y206693D01*
X169488Y158169D02*
X213386Y114272D01*
Y77568D02*
Y114272D01*
X204823Y69005D02*
X213386Y77568D01*
X208071Y48622D02*
Y49409D01*
X204823Y52658D02*
X208071Y49409D01*
X206604Y42815D02*
X212598D01*
X188735Y108017D02*
X196260Y100492D01*
X188735Y108017D02*
Y135138D01*
X168566Y155307D02*
X188735Y135138D01*
X155307Y155307D02*
X168566D01*
X152264Y158169D02*
X169488D01*
X204823Y52658D02*
Y69005D01*
X149803Y155709D02*
X152264Y158169D01*
X152461Y152461D02*
X155307Y155307D01*
X71768Y29909D02*
X71969Y30109D01*
X152461Y203346D02*
X153937Y204823D01*
X120965Y93799D02*
X121161Y93996D01*
X129232Y203591D02*
X130668Y205028D01*
X56628Y164969D02*
X57087Y164510D01*
X195397Y210687D02*
X196128Y211418D01*
X164469Y118528D02*
X164641Y118701D01*
X142569Y223328D02*
X142769Y223128D01*
X188169Y235609D02*
X188428Y235869D01*
X125428Y236869D02*
X125568Y236728D01*
D12*
X183858Y13778D02*
Y9843D01*
X186482D01*
X187794D02*
X189106D01*
X188450D01*
Y13778D01*
X187794Y13122D01*
D13*
X240551Y206299D02*
D03*
X233071D02*
D03*
X237008Y104921D02*
D03*
X244488D02*
D03*
X40650Y251083D02*
D03*
X33169D02*
D03*
X244488Y115551D02*
D03*
X237008D02*
D03*
X235209Y195468D02*
D03*
X227728D02*
D03*
X235138Y184843D02*
D03*
X227658D02*
D03*
X57528Y164068D02*
D03*
X65009D02*
D03*
X10138Y238287D02*
D03*
X17618D02*
D03*
X37598Y175689D02*
D03*
X45079D02*
D03*
X89272Y146555D02*
D03*
X81791D02*
D03*
X154429Y100098D02*
D03*
X146949D02*
D03*
X195909Y235869D02*
D03*
X188428D02*
D03*
X95428Y182369D02*
D03*
X102909D02*
D03*
X203609Y211418D02*
D03*
X196128D02*
D03*
D14*
X164469Y126009D02*
D03*
Y118528D02*
D03*
X176870Y125984D02*
D03*
Y118504D02*
D03*
X42717Y164075D02*
D03*
Y156595D02*
D03*
X85969Y110628D02*
D03*
Y118109D02*
D03*
X228248Y167323D02*
D03*
Y174803D02*
D03*
X152461Y203346D02*
D03*
Y195866D02*
D03*
X121161Y101476D02*
D03*
Y93996D02*
D03*
X99068Y212508D02*
D03*
Y205028D02*
D03*
X87968Y212508D02*
D03*
Y205028D02*
D03*
X130668Y212508D02*
D03*
Y205028D02*
D03*
X120268Y212508D02*
D03*
Y205028D02*
D03*
X109869Y212508D02*
D03*
Y205028D02*
D03*
X125568Y244209D02*
D03*
Y236728D02*
D03*
X142569Y230809D02*
D03*
Y223328D02*
D03*
X71768Y22428D02*
D03*
Y29909D02*
D03*
X153543Y125984D02*
D03*
Y118504D02*
D03*
D15*
X267717Y267717D02*
D03*
X11811Y11811D02*
D03*
D24*
X230413Y131791D02*
X237205D01*
X225295Y136909D02*
X230413Y131791D01*
X225295Y136909D02*
Y157480D01*
X254528Y172835D02*
Y233760D01*
X239173Y157480D02*
X254528Y172835D01*
X225295Y157480D02*
X239173D01*
X232264Y256024D02*
X254528Y233760D01*
X226673Y256024D02*
X232264D01*
X139169Y203046D02*
Y208361D01*
X129035Y192913D02*
X139169Y203046D01*
X125295Y192913D02*
X129035D01*
X144668Y202050D02*
Y206775D01*
X128740Y186122D02*
X144668Y202050D01*
X121949Y186122D02*
X128740D01*
X220571Y162303D02*
X225295Y157579D01*
X182972Y162303D02*
X220571D01*
X229429Y206496D02*
X231496D01*
X227618Y195579D02*
Y204685D01*
X229429Y206496D01*
X180118Y165157D02*
X182972Y162303D01*
X156693Y165157D02*
X180118D01*
X90818Y129528D02*
X117815D01*
X85869Y124578D02*
X90818Y129528D01*
X85869Y118009D02*
Y124578D01*
X48745Y127592D02*
X61213Y140059D01*
X112559D01*
X236910Y115650D02*
X237303Y116043D01*
X237205Y131791D02*
X237303Y131693D01*
Y116043D02*
Y131693D01*
X117815Y129528D02*
X129035Y140748D01*
X142717D02*
X147537Y145569D01*
X129035Y140748D02*
X142717D01*
X147537Y145569D02*
X154077D01*
X112559Y140059D02*
X120853Y148353D01*
X142868D01*
X121069Y170268D02*
X132493Y181693D01*
X226673Y209547D02*
Y216024D01*
X219301Y202175D02*
X226673Y209547D01*
X132493Y181693D02*
X158957D01*
X179439Y202175D02*
X219301D01*
X158957Y181693D02*
X179439Y202175D01*
X221818Y241168D02*
X226673Y246024D01*
X171976Y241168D02*
X221818D01*
X139169Y208361D02*
X171976Y241168D01*
X129232Y199407D02*
Y203591D01*
X222205Y221555D02*
X226673Y226024D01*
X159449Y221555D02*
X222205D01*
X144668Y206775D02*
X159449Y221555D01*
X85869Y118009D02*
X85969Y118109D01*
X236910Y115650D02*
X237008Y115551D01*
Y104921D02*
Y115551D01*
D25*
X143898Y169193D02*
X169587D01*
X133563Y158858D02*
X143898Y169193D01*
X111221Y158858D02*
X133563D01*
X218602Y184843D02*
X227658D01*
X169587Y169193D02*
X179331Y178937D01*
X212697D02*
X218602Y184843D01*
X179331Y178937D02*
X212697D01*
X209358Y195579D02*
X227618D01*
X164335Y172835D02*
X178508Y187008D01*
X200787D02*
X209358Y195579D01*
X178508Y187008D02*
X200787D01*
X131988Y172835D02*
X164335D01*
X121457Y162303D02*
X131988Y172835D01*
X157185Y151478D02*
Y151676D01*
D26*
X135039Y109350D02*
Y129528D01*
X127165Y101476D02*
X135039Y109350D01*
X121161Y101476D02*
X127165D01*
X110925Y99705D02*
X112697Y101476D01*
X102067Y99705D02*
X110925D01*
X112697Y101476D02*
X121161D01*
D27*
X41732Y165059D02*
X42717Y164075D01*
X38705Y165059D02*
X41732D01*
X37721Y166043D02*
X38705Y165059D01*
X31668Y173969D02*
X33389Y175689D01*
X31668Y144668D02*
Y173969D01*
Y144668D02*
X40113Y136224D01*
X79327Y118009D02*
X85869D01*
X65633Y104314D02*
X79327Y118009D01*
X62077Y104314D02*
X65633D01*
X33389Y175689D02*
X37598D01*
X89272Y146407D02*
X108514D01*
X108563Y146457D01*
X28368Y178168D02*
X31668Y174869D01*
X40113Y136224D02*
X48745Y127592D01*
X47991Y207972D02*
X86516Y169447D01*
Y156485D02*
Y169447D01*
Y156485D02*
X89272Y153729D01*
Y146555D02*
Y153729D01*
X31594Y207972D02*
X47991D01*
X99462Y198735D02*
X109449Y188748D01*
Y188583D02*
Y188748D01*
X99462Y198735D02*
Y205028D01*
X22597Y137040D02*
X22967Y177469D01*
X22597Y137040D02*
X55323Y104314D01*
X68701Y172638D02*
Y176870D01*
X64961Y168898D02*
X68701Y172638D01*
X64961Y164068D02*
Y168898D01*
X74902Y146555D02*
X81791D01*
X70965Y150492D02*
X74902Y146555D01*
X41696Y151440D02*
X42717Y152461D01*
X38234Y151440D02*
X41696D01*
X42717Y152461D02*
Y156595D01*
X37402Y166043D02*
X37721D01*
X17618Y221949D02*
X31594Y207972D01*
X17618Y221949D02*
Y238287D01*
X87992Y198528D02*
X97638Y188883D01*
X87992Y198528D02*
Y205004D01*
X55323Y104314D02*
X62077D01*
X48745Y127592D02*
X55659Y120732D01*
X62077Y114314D01*
X87968Y205028D02*
X87992Y205004D01*
X119685Y199705D02*
Y204444D01*
X120268Y205028D01*
X99068D02*
X99462D01*
X28368Y178168D02*
Y184869D01*
X45079Y175295D02*
Y175689D01*
X146457Y100591D02*
X146949Y100098D01*
X164469Y126009D02*
X164493Y125984D01*
D28*
X155610Y106201D02*
Y109744D01*
X154724Y110630D02*
X155610Y109744D01*
X154724Y110630D02*
Y117717D01*
X153937Y118504D02*
X154724Y117717D01*
X153543Y118504D02*
X153937D01*
D29*
X227658Y184843D02*
X227953Y184547D01*
Y175098D02*
Y184547D01*
X228248Y167323D02*
X228494Y167569D01*
X228838Y167224D01*
X233366D01*
X227953Y175098D02*
X228248Y174803D01*
X245866Y184941D02*
X245965Y185039D01*
X235236Y184941D02*
X245866D01*
X235138Y184843D02*
X235236Y184941D01*
X245750Y195254D02*
X245965Y195039D01*
X235423Y195254D02*
X245750D01*
X235209Y195468D02*
X235423Y195254D01*
X240945Y206693D02*
X248031D01*
X89961Y183957D02*
X91549Y182369D01*
X95428D01*
X104816Y181299D02*
X107776D01*
X103524Y182591D02*
X104816Y181299D01*
X102909Y181975D02*
X103524Y182591D01*
X102909Y181975D02*
Y182369D01*
X56988Y158760D02*
Y164412D01*
X57087Y164510D01*
X9941Y233268D02*
Y235433D01*
X40699Y251033D02*
X47195D01*
X152756Y206004D02*
Y208169D01*
X9843Y233268D02*
Y238386D01*
X154429Y100098D02*
X154724Y99803D01*
D30*
X164641Y118701D02*
X176673D01*
X142769Y218851D02*
Y223128D01*
X141831Y217913D02*
X142769Y218851D01*
X176673Y118701D02*
X176870Y118504D01*
X196091Y206327D02*
Y217126D01*
X203642Y206693D02*
Y217224D01*
X142569Y230809D02*
Y236869D01*
D31*
X170079Y125984D02*
Y146358D01*
X168430Y148007D02*
X170079Y146358D01*
X85962Y105872D02*
Y110432D01*
X120965Y88878D02*
Y93799D01*
X154724Y99803D02*
X159547D01*
D32*
X146752Y190551D02*
X152067Y195866D01*
X146752Y187697D02*
Y190551D01*
X152067Y195866D02*
X152461D01*
X158071D01*
X166339Y204134D02*
Y213779D01*
X158071Y195866D02*
X166339Y204134D01*
X130668Y212413D02*
X131269Y212408D01*
X120268Y212508D02*
X130668Y212413D01*
X47195Y251033D02*
X47244Y250984D01*
X99114Y214562D02*
X99869Y213808D01*
X99114Y214562D02*
Y224213D01*
X109547Y201190D02*
X112068Y198669D01*
X109547Y201190D02*
Y204313D01*
X17618Y243799D02*
X24114Y250295D01*
X17618Y238287D02*
Y243799D01*
X40650Y251083D02*
X40699Y251033D01*
X24508Y250689D02*
X32776D01*
X24114Y250295D02*
X24508Y250689D01*
X109547Y204313D02*
X110262Y205028D01*
X109869D02*
X110262D01*
X99068Y212508D02*
X109869D01*
X120268D01*
X87968D02*
X99068D01*
X244094Y117323D02*
Y121457D01*
Y117323D02*
X245177Y116240D01*
X244488Y115551D02*
X245177Y116240D01*
X253346Y104527D02*
X253740Y104134D01*
X244882Y104527D02*
X253346D01*
D33*
X125568Y244209D02*
X125728Y244369D01*
X120069D02*
X125728D01*
X131269Y218369D02*
X131869Y218969D01*
X131269Y212408D02*
Y218369D01*
X170079Y125984D02*
X176870D01*
X153543D02*
X153556Y125996D01*
X164456D01*
X164469Y126009D01*
X169513Y125984D02*
X170079D01*
X71752Y30325D02*
Y35630D01*
Y30325D02*
X71969Y30109D01*
X186768Y235728D02*
X187409Y236368D01*
X183465Y235728D02*
X186768D01*
X196547Y235630D02*
X200886D01*
X196109Y236069D02*
X196547Y235630D01*
X187409Y236368D02*
X188169Y235609D01*
X119869Y236668D02*
X125228D01*
X125428Y236869D01*
X71973Y17768D02*
Y22428D01*
X71768D02*
X71973D01*
X164493Y125984D02*
X169513D01*
X195909Y235869D02*
X196109Y236069D01*
D34*
X44668Y176099D02*
Y181468D01*
Y176099D02*
X45079Y175689D01*
D35*
X24114Y250295D02*
X32382D01*
X32776Y250689D01*
X33169Y251083D01*
D36*
X135827Y100591D02*
X146457D01*
D37*
X244882Y104527D02*
X245276Y104134D01*
X244488Y104921D02*
X244882Y104527D01*
X245276Y104134D02*
X253740D01*
D38*
X102854Y89803D02*
D03*
X216673Y216024D02*
D03*
X62077Y94314D02*
D03*
X245965Y195039D02*
D03*
D39*
X102854Y99803D02*
D03*
X226673Y256024D02*
D03*
X216673D02*
D03*
X226673Y246024D02*
D03*
X216673D02*
D03*
X226673Y236024D02*
D03*
X216673D02*
D03*
X226673Y226024D02*
D03*
X216673D02*
D03*
X226673Y216024D02*
D03*
X62077Y104314D02*
D03*
Y114314D02*
D03*
Y124314D02*
D03*
X245965Y185039D02*
D03*
Y175039D02*
D03*
X58701Y176870D02*
D03*
D40*
X176339Y213779D02*
D03*
X68701Y176870D02*
D03*
D41*
X166339Y213779D02*
D03*
D42*
X44685Y226604D02*
D03*
Y233829D02*
D03*
X41073Y222992D02*
D03*
Y230217D02*
D03*
Y237441D02*
D03*
X37461Y226604D02*
D03*
Y233829D02*
D03*
X33848Y222992D02*
D03*
Y230217D02*
D03*
Y237441D02*
D03*
X30236Y226604D02*
D03*
Y233829D02*
D03*
X51181Y119291D02*
D03*
X25823Y143060D02*
D03*
X147736Y160335D02*
D03*
X85205Y183268D02*
D03*
X80315Y167224D02*
D03*
X75787Y164173D02*
D03*
X176117Y193765D02*
D03*
X7185Y117269D02*
D03*
X7087Y157972D02*
D03*
X155610Y106201D02*
D03*
X233366Y167224D02*
D03*
X248031Y206693D02*
D03*
X208884Y57050D02*
D03*
X8661Y62402D02*
D03*
X9843Y81102D02*
D03*
X208071Y48622D02*
D03*
X212598Y42815D02*
D03*
X250394Y66240D02*
D03*
X209055Y96949D02*
D03*
X213976Y60335D02*
D03*
X165256Y139862D02*
D03*
X167502Y152738D02*
D03*
X149803Y155709D02*
D03*
X152461Y152461D02*
D03*
X157185Y151478D02*
D03*
X156693Y165157D02*
D03*
X151870Y163484D02*
D03*
X24508Y92224D02*
D03*
X111221Y158858D02*
D03*
X176083Y169390D02*
D03*
X206068Y167868D02*
D03*
X135039Y129528D02*
D03*
X146752Y187697D02*
D03*
X91240Y98327D02*
D03*
X92323Y161122D02*
D03*
X89961Y183957D02*
D03*
X109449Y188583D02*
D03*
X7969Y186268D02*
D03*
X70169Y248768D02*
D03*
X37402Y217717D02*
D03*
X7869Y199268D02*
D03*
X7933Y253209D02*
D03*
X28368Y184869D02*
D03*
X24114Y250295D02*
D03*
X83368Y248868D02*
D03*
X24902Y237106D02*
D03*
X100000Y123327D02*
D03*
X17028Y153543D02*
D03*
X70965Y150492D02*
D03*
X18012Y122146D02*
D03*
X7087Y139173D02*
D03*
X184252Y193405D02*
D03*
X196063Y193012D02*
D03*
X190059Y199213D02*
D03*
X131869Y218969D02*
D03*
X128937Y199669D02*
D03*
X108563Y146457D02*
D03*
X49311Y136024D02*
D03*
X142868Y148353D02*
D03*
X121457Y162303D02*
D03*
X125295Y192913D02*
D03*
X152559Y176378D02*
D03*
X168430Y148007D02*
D03*
X154077Y145569D02*
D03*
X152461Y187598D02*
D03*
X121069Y170268D02*
D03*
X121949Y186122D02*
D03*
X154043Y132290D02*
D03*
X152665Y141739D02*
D03*
X141831Y217913D02*
D03*
X93968Y135869D02*
D03*
X28051Y29823D02*
D03*
X28150Y21457D02*
D03*
X28346Y12894D02*
D03*
X61713D02*
D03*
X61909Y21457D02*
D03*
X61319Y29823D02*
D03*
X53543D02*
D03*
X54035Y21457D02*
D03*
X53445Y12894D02*
D03*
X44783D02*
D03*
X45000Y21457D02*
D03*
X45472Y29823D02*
D03*
X36122D02*
D03*
X36319Y21457D02*
D03*
X36024Y12894D02*
D03*
X7972Y54035D02*
D03*
X18307D02*
D03*
X71752Y35630D02*
D03*
X56988Y158760D02*
D03*
X183465Y235728D02*
D03*
X200886Y235630D02*
D03*
X196091Y206327D02*
D03*
X203740Y206102D02*
D03*
X9941Y233268D02*
D03*
X203642Y217224D02*
D03*
X195965Y217126D02*
D03*
X246850Y144882D02*
D03*
X235302Y144957D02*
D03*
X170669Y206004D02*
D03*
X157382Y207874D02*
D03*
X235138Y152655D02*
D03*
X37402Y166043D02*
D03*
X30217Y217815D02*
D03*
X25098Y222835D02*
D03*
X24803Y230020D02*
D03*
X30217Y242618D02*
D03*
X37598D02*
D03*
X44783Y242421D02*
D03*
X49902Y237205D02*
D03*
X50197Y230217D02*
D03*
X50295Y223031D02*
D03*
X44783Y217520D02*
D03*
X120069Y244369D02*
D03*
X119869Y236668D02*
D03*
X27468Y80769D02*
D03*
X32168Y75169D02*
D03*
X142569Y236869D02*
D03*
X143569Y194269D02*
D03*
X10335Y97342D02*
D03*
X204668Y103168D02*
D03*
X209968Y107369D02*
D03*
X199268D02*
D03*
X195668Y166168D02*
D03*
X184569Y166469D02*
D03*
X210268Y151368D02*
D03*
X199469Y151769D02*
D03*
X71973Y17768D02*
D03*
X85969Y106069D02*
D03*
X110369Y123773D02*
D03*
X167368Y112568D02*
D03*
X20571Y271457D02*
D03*
X99114Y224213D02*
D03*
X112068Y198669D02*
D03*
X107776Y181299D02*
D03*
X97638Y188883D02*
D03*
X119685Y199705D02*
D03*
X152756Y208169D02*
D03*
X244094Y121457D02*
D03*
X44668Y181468D02*
D03*
X87269Y237368D02*
D03*
X52868Y184169D02*
D03*
X66339Y183858D02*
D03*
X47244Y250984D02*
D03*
X87669Y228368D02*
D03*
X55905Y250787D02*
D03*
X22967Y177469D02*
D03*
X15168Y182768D02*
D03*
X120965Y88878D02*
D03*
X42042Y271767D02*
D03*
X38234Y151440D02*
D03*
X150295Y24016D02*
D03*
X160132Y24068D02*
D03*
X171260Y43110D02*
D03*
X150000Y108465D02*
D03*
X153347Y73425D02*
D03*
X149803Y84153D02*
D03*
X168602Y93701D02*
D03*
X122835Y123622D02*
D03*
X103150Y117126D02*
D03*
X167126Y103150D02*
D03*
X141368Y127969D02*
D03*
X135827Y100591D02*
D03*
X21468Y27169D02*
D03*
X140256Y108268D02*
D03*
X122933Y270768D02*
D03*
X65945Y271654D02*
D03*
X237205Y131791D02*
D03*
X7933Y265886D02*
D03*
X133465Y234252D02*
D03*
X109669Y247868D02*
D03*
X92126Y249409D02*
D03*
X109055Y228346D02*
D03*
X103937Y234449D02*
D03*
X183369Y206569D02*
D03*
X207283Y198425D02*
D03*
X172835Y235039D02*
D03*
X189370Y227362D02*
D03*
X205315D02*
D03*
X176969Y226772D02*
D03*
X205512Y251181D02*
D03*
X223622Y268799D02*
D03*
X239567Y259252D02*
D03*
X97244Y238779D02*
D03*
X144980Y250000D02*
D03*
X139272Y266437D02*
D03*
X246555Y152461D02*
D03*
X259941Y168504D02*
D03*
X260039Y203937D02*
D03*
X258858Y218110D02*
D03*
X258465Y238779D02*
D03*
X192224Y246850D02*
D03*
X174606Y245374D02*
D03*
X155788Y233287D02*
D03*
X20571Y84449D02*
D03*
X18012Y88878D02*
D03*
X8568Y26469D02*
D03*
X18110Y34941D02*
D03*
X8169Y34843D02*
D03*
X29626Y60925D02*
D03*
X5315Y94390D02*
D03*
X29528Y67323D02*
D03*
X29724Y54921D02*
D03*
X13189Y118405D02*
D03*
X21850Y95965D02*
D03*
X141043Y176279D02*
D03*
X144980Y164272D02*
D03*
X226181Y129626D02*
D03*
X219980Y145669D02*
D03*
X184252Y125591D02*
D03*
X220177Y128347D02*
D03*
X97441Y43307D02*
D03*
X82480Y7382D02*
D03*
X82382Y48917D02*
D03*
X85532Y37500D02*
D03*
X71752Y52264D02*
D03*
X187106Y38091D02*
D03*
X108169Y40453D02*
D03*
X187205Y48819D02*
D03*
X192618Y60433D02*
D03*
X230413Y137106D02*
D03*
X204921Y82480D02*
D03*
X173031Y78347D02*
D03*
X109449Y73819D02*
D03*
X159547Y99803D02*
D03*
X169980Y118701D02*
D03*
X128150Y12008D02*
D03*
X129569Y260268D02*
D03*
X98228Y249409D02*
D03*
X56595Y268504D02*
D03*
X48425D02*
D03*
X66568Y237368D02*
D03*
X65168Y206368D02*
D03*
X66568Y215968D02*
D03*
X47269Y201368D02*
D03*
X33957Y202067D02*
D03*
X17768Y213069D02*
D03*
X21269Y201869D02*
D03*
X9769Y206968D02*
D03*
X8868Y218669D02*
D03*
X12697Y225295D02*
D03*
X129626Y24213D02*
D03*
X119523Y24241D02*
D03*
X200468Y99068D02*
D03*
X188268Y96368D02*
D03*
X174606Y144587D02*
D03*
X191831Y124705D02*
D03*
X230610Y127461D02*
D03*
X204869Y156769D02*
D03*
X212568Y147569D02*
D03*
X213268Y137369D02*
D03*
X208569Y173468D02*
D03*
X208869Y185268D02*
D03*
X175068Y202468D02*
D03*
X122146Y109449D02*
D03*
X253740Y104134D02*
D03*
D43*
X12106Y166339D02*
D03*
X96457Y20669D02*
D03*
X262500Y150886D02*
D03*
X161417Y259842D02*
D03*
X81201Y77559D02*
D03*
X262500Y20669D02*
D03*
X259842Y259842D02*
D03*
M02*
