G04*
G04 #@! TF.GenerationSoftware,Altium Limited,Altium Designer,19.1.6 (110)*
G04*
G04 Layer_Color=12811406*
%FSLAX25Y25*%
%MOIN*%
G70*
G01*
G75*
%ADD10C,0.01000*%
%ADD11C,0.00787*%
%ADD12C,0.00591*%
%ADD25C,0.01181*%
%ADD27C,0.01968*%
%ADD90C,0.00600*%
%ADD91C,0.00000*%
%ADD92C,0.00500*%
%ADD93C,0.00394*%
%ADD94C,0.00800*%
G36*
X128187Y133461D02*
X129687D01*
Y132461D01*
X128187D01*
Y133461D01*
D02*
G37*
G36*
X113776Y159215D02*
X112776D01*
Y157715D01*
X113776D01*
Y159215D01*
D02*
G37*
G36*
X126218Y185437D02*
X127718D01*
Y186437D01*
X126218D01*
Y185437D01*
D02*
G37*
G36*
X147872Y133461D02*
X149372D01*
Y132461D01*
X147872D01*
Y133461D01*
D02*
G37*
G36*
X165752Y157246D02*
X166752D01*
Y155746D01*
X165752D01*
Y157246D01*
D02*
G37*
G36*
X145904Y185437D02*
X147404D01*
Y186437D01*
X145904D01*
Y185437D01*
D02*
G37*
G36*
X156435Y179649D02*
X159964D01*
Y176120D01*
X156435Y179649D01*
D02*
G37*
D10*
X261185Y93646D02*
G03*
X261185Y93646I-500J0D01*
G01*
X32630Y143350D02*
G03*
X32630Y143350I-500J0D01*
G01*
D11*
X216650Y42697D02*
G03*
X216650Y42697I-394J0D01*
G01*
X25480Y132598D02*
G03*
X25480Y132598I-394J0D01*
G01*
X8366Y265650D02*
G03*
X8366Y265650I-394J0D01*
G01*
X97854Y104803D02*
X107854D01*
X97854Y84803D02*
Y104803D01*
X107854Y84803D02*
Y104803D01*
X97854Y84803D02*
X107854D01*
X161339Y208780D02*
Y218779D01*
Y208780D02*
X181339D01*
X161339Y218779D02*
X181339D01*
Y208780D02*
Y218779D01*
X6988Y74803D02*
Y78543D01*
X4823Y63779D02*
Y72835D01*
X20571Y63779D02*
Y72835D01*
X4823Y63779D02*
X11122D01*
X14272D02*
X20571D01*
X4823Y72835D02*
X11122D01*
X14272D02*
X20571D01*
X204921Y33858D02*
Y42913D01*
X189173Y33858D02*
Y42913D01*
X198622D02*
X204921D01*
X189173D02*
X195472D01*
X198622Y33858D02*
X204921D01*
X189173D02*
X195472D01*
X200197Y64764D02*
X209252D01*
X200197Y80512D02*
X209252D01*
Y64764D02*
Y71063D01*
Y74213D02*
Y80512D01*
X200197Y64764D02*
Y71063D01*
Y74213D02*
Y80512D01*
X205020Y44390D02*
Y53445D01*
X189272Y44390D02*
Y53445D01*
X198721D02*
X205020D01*
X189272D02*
X195571D01*
X198721Y44390D02*
X205020D01*
X189272D02*
X195571D01*
X210925Y64665D02*
X219980D01*
X210925Y80413D02*
X219980D01*
Y64665D02*
Y70965D01*
Y74114D02*
Y80413D01*
X210925Y64665D02*
Y70965D01*
Y74114D02*
Y80413D01*
X125295Y40915D02*
X134350D01*
X125295Y25167D02*
X134350D01*
X125295Y34616D02*
Y40915D01*
Y25167D02*
Y31466D01*
X134350Y34616D02*
Y40915D01*
Y25167D02*
Y31466D01*
X114695Y40915D02*
X123750D01*
X114695Y25167D02*
X123750D01*
X114695Y34616D02*
Y40915D01*
Y25167D02*
Y31466D01*
X123750Y34616D02*
Y40915D01*
Y25167D02*
Y31466D01*
X135595Y40815D02*
X144650D01*
X135595Y25067D02*
X144650D01*
X135595Y34516D02*
Y40815D01*
Y25067D02*
Y31366D01*
X144650Y34516D02*
Y40815D01*
Y25067D02*
Y31366D01*
X166732Y40748D02*
X175787D01*
X166732Y25000D02*
X175787D01*
X166732Y34449D02*
Y40748D01*
Y25000D02*
Y31299D01*
X175787Y34449D02*
Y40748D01*
Y25000D02*
Y31299D01*
X146063Y25000D02*
X155118D01*
X146063Y40748D02*
X155118D01*
Y25000D02*
Y31299D01*
Y34449D02*
Y40748D01*
X146063Y25000D02*
Y31299D01*
Y34449D02*
Y40748D01*
X112402Y121555D02*
X121457D01*
X112402Y105807D02*
X121457D01*
X112402Y115256D02*
Y121555D01*
Y105807D02*
Y112106D01*
X121457Y115256D02*
Y121555D01*
Y105807D02*
Y112106D01*
X89091Y150492D02*
Y159547D01*
X73343Y150492D02*
Y159547D01*
X82791D02*
X89091D01*
X73343D02*
X79642D01*
X82791Y150492D02*
X89091D01*
X73343D02*
X79642D01*
X95341Y140542D02*
X104396D01*
X95341Y124794D02*
X104396D01*
X95341Y134243D02*
Y140542D01*
Y124794D02*
Y131094D01*
X104396Y134243D02*
Y140542D01*
Y124794D02*
Y131094D01*
X154841Y190094D02*
X163896D01*
X154841Y205842D02*
X163896D01*
Y190094D02*
Y196394D01*
Y199543D02*
Y205842D01*
X154841Y190094D02*
Y196394D01*
Y199543D02*
Y205842D01*
X146653Y125000D02*
X155709D01*
X146653Y109252D02*
X155709D01*
X146653Y118701D02*
Y125000D01*
Y109252D02*
Y115551D01*
X155709Y118701D02*
Y125000D01*
Y109252D02*
Y115551D01*
X105941Y140642D02*
X114996D01*
X105941Y124894D02*
X114996D01*
X105941Y134343D02*
Y140642D01*
Y124894D02*
Y131194D01*
X114996Y134343D02*
Y140642D01*
Y124894D02*
Y131194D01*
X98327Y162205D02*
Y171260D01*
X82579Y162205D02*
Y171260D01*
X92028D02*
X98327D01*
X82579D02*
X88878D01*
X92028Y162205D02*
X98327D01*
X82579D02*
X88878D01*
X144541Y190495D02*
X153596D01*
X144541Y206242D02*
X153596D01*
Y190495D02*
Y196794D01*
Y199943D02*
Y206242D01*
X144541Y190495D02*
Y196794D01*
Y199943D02*
Y206242D01*
X156988Y124606D02*
X166043D01*
X156988Y108858D02*
X166043D01*
X156988Y118307D02*
Y124606D01*
Y108858D02*
Y115157D01*
X166043Y118307D02*
Y124606D01*
Y108858D02*
Y115157D01*
X135957Y124780D02*
X145012D01*
X135957Y109032D02*
X145012D01*
X135957Y118481D02*
Y124780D01*
Y109032D02*
Y115331D01*
X145012Y118481D02*
Y124780D01*
Y109032D02*
Y115331D01*
X185531Y181595D02*
X194587D01*
X185531Y197343D02*
X194587D01*
Y181595D02*
Y187894D01*
Y191043D02*
Y197343D01*
X185531Y181595D02*
Y187894D01*
Y191043D02*
Y197343D01*
Y178051D02*
X194587D01*
X185531Y162303D02*
X194587D01*
X185531Y171752D02*
Y178051D01*
Y162303D02*
Y168602D01*
X194587Y171752D02*
Y178051D01*
Y162303D02*
Y168602D01*
X23130Y267323D02*
Y276378D01*
X38878Y267323D02*
Y276378D01*
X23130Y267323D02*
X29429D01*
X32579D02*
X38878D01*
X23130Y276378D02*
X29429D01*
X32579D02*
X38878D01*
X165441Y189694D02*
X174496D01*
X165441Y205443D02*
X174496D01*
Y189694D02*
Y195994D01*
Y199143D02*
Y205443D01*
X165441Y189694D02*
Y195994D01*
Y199143D02*
Y205443D01*
X177165Y56595D02*
X186221D01*
X177165Y72342D02*
X186221D01*
Y56595D02*
Y62894D01*
Y66043D02*
Y72342D01*
X177165Y56595D02*
Y62894D01*
Y66043D02*
Y72342D01*
X101083Y54035D02*
X110138D01*
X101083Y69784D02*
X110138D01*
Y54035D02*
Y60335D01*
Y63484D02*
Y69784D01*
X101083Y54035D02*
Y60335D01*
Y63484D02*
Y69784D01*
X90551Y53937D02*
X99606D01*
X90551Y69685D02*
X99606D01*
Y53937D02*
Y60236D01*
Y63386D02*
Y69685D01*
X90551Y53937D02*
Y60236D01*
Y63386D02*
Y69685D01*
X166929Y56595D02*
X175984D01*
X166929Y72342D02*
X175984D01*
Y56595D02*
Y62894D01*
Y66043D02*
Y72342D01*
X166929Y56595D02*
Y62894D01*
Y66043D02*
Y72342D01*
X144499Y8116D02*
Y17171D01*
X128750Y8116D02*
Y17171D01*
X138199D02*
X144499D01*
X128750D02*
X135050D01*
X138199Y8116D02*
X144499D01*
X128750D02*
X135050D01*
X254035Y210433D02*
Y219488D01*
X238287Y210433D02*
Y219488D01*
X247736D02*
X254035D01*
X238287D02*
X244587D01*
X247736Y210433D02*
X254035D01*
X238287D02*
X244587D01*
X254232Y221654D02*
Y230709D01*
X238484Y221654D02*
Y230709D01*
X247933D02*
X254232D01*
X238484D02*
X244783D01*
X247933Y221654D02*
X254232D01*
X238484D02*
X244783D01*
X254232Y232283D02*
Y241339D01*
X238484Y232283D02*
Y241339D01*
X247933D02*
X254232D01*
X238484D02*
X244783D01*
X247933Y232283D02*
X254232D01*
X238484D02*
X244783D01*
X254331Y242913D02*
Y251969D01*
X238583Y242913D02*
Y251969D01*
X248031D02*
X254331D01*
X238583D02*
X244882D01*
X248031Y242913D02*
X254331D01*
X238583D02*
X244882D01*
X110043Y262541D02*
Y271596D01*
X94295Y262541D02*
Y271596D01*
X103743D02*
X110043D01*
X94295D02*
X100594D01*
X103743Y262541D02*
X110043D01*
X94295D02*
X100594D01*
X96260Y191535D02*
X105315D01*
X96260Y207283D02*
X105315D01*
Y191535D02*
Y197835D01*
Y200984D02*
Y207283D01*
X96260Y191535D02*
Y197835D01*
Y200984D02*
Y207283D01*
X85728Y185433D02*
X94784D01*
X85728Y201181D02*
X94784D01*
Y185433D02*
Y191732D01*
Y194882D02*
Y201181D01*
X85728Y185433D02*
Y191732D01*
Y194882D02*
Y201181D01*
X123841Y236794D02*
X132896D01*
X123841Y252542D02*
X132896D01*
Y236794D02*
Y243094D01*
Y246243D02*
Y252542D01*
X123841Y236794D02*
Y243094D01*
Y246243D02*
Y252542D01*
X115945Y210531D02*
X125000D01*
X115945Y226279D02*
X125000D01*
Y210531D02*
Y216831D01*
Y219980D02*
Y226279D01*
X115945Y210531D02*
Y216831D01*
Y219980D02*
Y226279D01*
X105610Y208465D02*
X114665D01*
X105610Y224213D02*
X114665D01*
Y208465D02*
Y214764D01*
Y217913D02*
Y224213D01*
X105610Y208465D02*
Y214764D01*
Y217913D02*
Y224213D01*
X13936Y36526D02*
X22991D01*
X13936Y52274D02*
X22991D01*
Y36526D02*
Y42825D01*
Y45975D02*
Y52274D01*
X13936Y36526D02*
Y42825D01*
Y45975D02*
Y52274D01*
X236286Y140824D02*
X245341D01*
X236286Y156572D02*
X245341D01*
Y140824D02*
Y147123D01*
Y150272D02*
Y156572D01*
X236286Y140824D02*
Y147123D01*
Y150272D02*
Y156572D01*
X69557Y99984D02*
X78613D01*
X69557Y115732D02*
X78613D01*
Y99984D02*
Y106283D01*
Y109432D02*
Y115732D01*
X69557Y99984D02*
Y106283D01*
Y109432D02*
Y115732D01*
X19390Y267323D02*
Y276378D01*
X3642Y267323D02*
Y276378D01*
X13091D02*
X19390D01*
X3642D02*
X9941D01*
X13091Y267323D02*
X19390D01*
X3642D02*
X9941D01*
X98425Y172638D02*
Y181693D01*
X82677Y172638D02*
Y181693D01*
X92126D02*
X98425D01*
X82677D02*
X88976D01*
X92126Y172638D02*
X98425D01*
X82677D02*
X88976D01*
X200341Y139894D02*
X209396D01*
X200341Y155642D02*
X209396D01*
Y139894D02*
Y146194D01*
Y149343D02*
Y155642D01*
X200341Y139894D02*
Y146194D01*
Y149343D02*
Y155642D01*
X200241Y119642D02*
X209296D01*
X200241Y103894D02*
X209296D01*
X200241Y113343D02*
Y119642D01*
Y103894D02*
Y110194D01*
X209296Y113343D02*
Y119642D01*
Y103894D02*
Y110194D01*
X200341Y122695D02*
X209396D01*
X200341Y138443D02*
X209396D01*
Y122695D02*
Y128994D01*
Y132143D02*
Y138443D01*
X200341Y122695D02*
Y128994D01*
Y132143D02*
Y138443D01*
X3636Y36526D02*
X12691D01*
X3636Y52274D02*
X12691D01*
Y36526D02*
Y42825D01*
Y45975D02*
Y52274D01*
X3636Y36526D02*
Y42825D01*
Y45975D02*
Y52274D01*
X44094Y76378D02*
Y85433D01*
X28346Y76378D02*
Y85433D01*
X37795D02*
X44094D01*
X28346D02*
X34646D01*
X37795Y76378D02*
X44094D01*
X28346D02*
X34646D01*
X33465Y118110D02*
Y127165D01*
X49213Y118110D02*
Y127165D01*
X33465Y118110D02*
X39764D01*
X42913D02*
X49213D01*
X33465Y127165D02*
X39764D01*
X42913D02*
X49213D01*
X211673Y211024D02*
Y261024D01*
X231673Y211024D02*
Y261024D01*
X211673Y211024D02*
X231673D01*
X211673Y261024D02*
X231673D01*
X205807Y226968D02*
X211319D01*
X205610Y227165D02*
Y245079D01*
X211417D01*
X57077Y129314D02*
X67077D01*
X57077Y89314D02*
Y129314D01*
X67077Y89314D02*
Y129314D01*
X57077Y89314D02*
X67077D01*
X156398Y25098D02*
X165453D01*
X156398Y40846D02*
X165453D01*
Y25098D02*
Y31398D01*
Y34547D02*
Y40846D01*
X156398Y25098D02*
Y31398D01*
Y34547D02*
Y40846D01*
X53701Y181870D02*
X73701D01*
Y171870D02*
Y181870D01*
X53701Y171870D02*
X73701D01*
X53701D02*
Y181870D01*
D12*
X116831Y92125D02*
Y88189D01*
Y90157D01*
X114207D01*
Y92125D01*
Y88189D01*
X110271D02*
X112895D01*
X110271Y90813D01*
Y91469D01*
X110927Y92125D01*
X112239D01*
X112895Y91469D01*
X182776Y224900D02*
Y220965D01*
Y222932D01*
X180152D01*
Y224900D01*
Y220965D01*
X178840D02*
X177528D01*
X178184D01*
Y224900D01*
X178840Y224244D01*
X219783Y203280D02*
X219127Y203936D01*
X217816D01*
X217160Y203280D01*
Y202624D01*
X217816Y201968D01*
X218472D01*
X217816D01*
X217160Y201312D01*
Y200656D01*
X217816Y200000D01*
X219127D01*
X219783Y200656D01*
X213224Y200000D02*
X215848D01*
X213224Y202624D01*
Y203280D01*
X213880Y203936D01*
X215192D01*
X215848Y203280D01*
X211912Y200000D02*
Y200656D01*
X211256D01*
Y200000D01*
X211912D01*
X208632Y203936D02*
X206008D01*
Y203280D01*
X208632Y200656D01*
Y200000D01*
X202073Y203936D02*
X203384Y203280D01*
X204696Y201968D01*
Y200656D01*
X204041Y200000D01*
X202729D01*
X202073Y200656D01*
Y201312D01*
X202729Y201968D01*
X204696D01*
X200761Y203280D02*
X200105Y203936D01*
X198793D01*
X198137Y203280D01*
Y202624D01*
X198793Y201968D01*
X198137Y201312D01*
Y200656D01*
X198793Y200000D01*
X200105D01*
X200761Y200656D01*
Y201312D01*
X200105Y201968D01*
X200761Y202624D01*
Y203280D01*
X200105Y201968D02*
X198793D01*
X196825Y200000D02*
Y203936D01*
Y201312D02*
X194857Y202624D01*
X196825Y201312D02*
X194857Y200000D01*
X192889Y203936D02*
Y200000D01*
Y201968D01*
X190265D01*
Y203936D01*
Y200000D01*
X188953Y202624D02*
X186330D01*
X188953Y200000D01*
X186330D01*
X244817Y73260D02*
X245473Y73916D01*
X246785D01*
X247441Y73260D01*
Y72604D01*
X246785Y71948D01*
X245473D01*
X244817Y71292D01*
Y70636D01*
X245473Y69980D01*
X246785D01*
X247441Y70636D01*
X243505Y73916D02*
Y69980D01*
X242193Y71292D01*
X240881Y69980D01*
Y73916D01*
X19488Y57382D02*
Y61318D01*
X17520D01*
X16864Y60662D01*
Y59350D01*
X17520Y58694D01*
X19488D01*
X18176D02*
X16864Y57382D01*
X15552Y60662D02*
X14897Y61318D01*
X13585D01*
X12929Y60662D01*
Y60006D01*
X13585Y59350D01*
X14241D01*
X13585D01*
X12929Y58694D01*
Y58038D01*
X13585Y57382D01*
X14897D01*
X15552Y58038D01*
X11617Y60662D02*
X10961Y61318D01*
X9649D01*
X8993Y60662D01*
Y58038D01*
X9649Y57382D01*
X10961D01*
X11617Y58038D01*
Y60662D01*
X17913Y83857D02*
Y79921D01*
X15946D01*
X15290Y80577D01*
Y83201D01*
X15946Y83857D01*
X17913D01*
X13978Y83201D02*
X13322Y83857D01*
X12010D01*
X11354Y83201D01*
Y82545D01*
X12010Y81889D01*
X12666D01*
X12010D01*
X11354Y81233D01*
Y80577D01*
X12010Y79921D01*
X13322D01*
X13978Y80577D01*
X202559Y27756D02*
Y31692D01*
X200591D01*
X199935Y31036D01*
Y29724D01*
X200591Y29068D01*
X202559D01*
X201247D02*
X199935Y27756D01*
X198623D02*
X197311D01*
X197967D01*
Y31692D01*
X198623Y31036D01*
X192720Y31692D02*
X194032Y31036D01*
X195343Y29724D01*
Y28412D01*
X194688Y27756D01*
X193376D01*
X192720Y28412D01*
Y29068D01*
X193376Y29724D01*
X195343D01*
X208760Y83268D02*
Y87204D01*
X206792D01*
X206136Y86547D01*
Y85236D01*
X206792Y84580D01*
X208760D01*
X207448D02*
X206136Y83268D01*
X202200D02*
X204824D01*
X202200Y85891D01*
Y86547D01*
X202856Y87204D01*
X204168D01*
X204824Y86547D01*
X200888D02*
X200232Y87204D01*
X198921D01*
X198265Y86547D01*
Y85891D01*
X198921Y85236D01*
X199576D01*
X198921D01*
X198265Y84580D01*
Y83924D01*
X198921Y83268D01*
X200232D01*
X200888Y83924D01*
X203642Y55807D02*
Y59743D01*
X201674D01*
X201018Y59087D01*
Y57775D01*
X201674Y57119D01*
X203642D01*
X202330D02*
X201018Y55807D01*
X197082D02*
X199706D01*
X197082Y58431D01*
Y59087D01*
X197738Y59743D01*
X199050D01*
X199706Y59087D01*
X193146Y55807D02*
X195770D01*
X193146Y58431D01*
Y59087D01*
X193802Y59743D01*
X195114D01*
X195770Y59087D01*
X233169Y76083D02*
Y80018D01*
X231201D01*
X230545Y79362D01*
Y78051D01*
X231201Y77395D01*
X233169D01*
X231857D02*
X230545Y76083D01*
X226610D02*
X229234D01*
X226610Y78707D01*
Y79362D01*
X227266Y80018D01*
X228578D01*
X229234Y79362D01*
X222674Y80018D02*
X223986Y79362D01*
X225298Y78051D01*
Y76739D01*
X224642Y76083D01*
X223330D01*
X222674Y76739D01*
Y77395D01*
X223330Y78051D01*
X225298D01*
X247835Y31101D02*
Y27165D01*
X245867D01*
X245211Y27821D01*
Y30445D01*
X245867Y31101D01*
X247835D01*
X241931Y27165D02*
X243243D01*
X243899Y27821D01*
Y29133D01*
X243243Y29789D01*
X241931D01*
X241275Y29133D01*
Y28477D01*
X243899D01*
X239963Y29789D02*
X238651Y27165D01*
X237339Y29789D01*
X236027Y27165D02*
X234716D01*
X235371D01*
Y29789D01*
X236027D01*
X230124D02*
X232092D01*
X232748Y29133D01*
Y27821D01*
X232092Y27165D01*
X230124D01*
X226844D02*
X228156D01*
X228812Y27821D01*
Y29133D01*
X228156Y29789D01*
X226844D01*
X226188Y29133D01*
Y28477D01*
X228812D01*
X220940Y31101D02*
X219629D01*
X220285D01*
Y27165D01*
X220940D01*
X219629D01*
X217661Y31101D02*
Y27165D01*
X215693D01*
X215037Y27821D01*
Y30445D01*
X215693Y31101D01*
X217661D01*
X222737Y32677D02*
Y36613D01*
X224705Y34645D01*
X222081D01*
X245768Y67912D02*
X247080D01*
X247736Y67256D01*
Y64632D01*
X247080Y63976D01*
X245768D01*
X245112Y64632D01*
Y67256D01*
X245768Y67912D01*
X243800Y63976D02*
Y67912D01*
X241177Y63976D01*
Y67912D01*
X224902Y64173D02*
X223590D01*
X224246D01*
Y68109D01*
X224902Y67453D01*
X45861Y145695D02*
Y143446D01*
X46798Y145133D02*
X44924Y144008D01*
Y145133D02*
X46798Y144008D01*
X44882Y97539D02*
X47506D01*
X46194Y98851D02*
Y96227D01*
X181201Y95965D02*
X179889D01*
X180545D01*
Y99900D01*
X181201Y99244D01*
X175297Y99900D02*
X176609Y99244D01*
X177921Y97932D01*
Y96621D01*
X177265Y95965D01*
X175953D01*
X175297Y96621D01*
Y97277D01*
X175953Y97932D01*
X177921D01*
X173985Y95965D02*
Y99900D01*
X172673Y98588D01*
X171361Y99900D01*
Y95965D01*
X179921Y105905D02*
X178422Y104030D01*
Y101969D01*
X176922Y105905D02*
X178422Y104030D01*
X176416Y105155D02*
X176041Y105342D01*
X175479Y105905D01*
Y101969D01*
X41283Y74259D02*
X41470Y74634D01*
X41845Y75009D01*
X42220Y75196D01*
X42970D01*
X43345Y75009D01*
X43720Y74634D01*
X43907Y74259D01*
X44094Y73697D01*
Y72759D01*
X43907Y72197D01*
X43720Y71822D01*
X43345Y71447D01*
X42970Y71260D01*
X42220D01*
X41845Y71447D01*
X41470Y71822D01*
X41283Y72197D01*
X39990Y74259D02*
Y74446D01*
X39802Y74821D01*
X39615Y75009D01*
X39240Y75196D01*
X38490D01*
X38115Y75009D01*
X37928Y74821D01*
X37740Y74446D01*
Y74071D01*
X37928Y73697D01*
X38303Y73134D01*
X40177Y71260D01*
X37553D01*
X34423Y75196D02*
X36297D01*
X36485Y73509D01*
X36297Y73697D01*
X35735Y73884D01*
X35173D01*
X34610Y73697D01*
X34235Y73322D01*
X34048Y72759D01*
Y72385D01*
X34235Y71822D01*
X34610Y71447D01*
X35173Y71260D01*
X35735D01*
X36297Y71447D01*
X36485Y71635D01*
X36672Y72010D01*
X220866Y136220D02*
Y132283D01*
Y136220D02*
X219179D01*
X218617Y136032D01*
X218429Y135845D01*
X218242Y135470D01*
Y135095D01*
X218429Y134720D01*
X218617Y134533D01*
X219179Y134345D01*
X220866D01*
X219554D02*
X218242Y132283D01*
X217174Y135282D02*
Y135470D01*
X216986Y135845D01*
X216799Y136032D01*
X216424Y136220D01*
X215674D01*
X215299Y136032D01*
X215112Y135845D01*
X214924Y135470D01*
Y135095D01*
X215112Y134720D01*
X215487Y134158D01*
X217361Y132283D01*
X214737D01*
X212731Y136220D02*
X213294Y136032D01*
X213669Y135470D01*
X213856Y134533D01*
Y133970D01*
X213669Y133033D01*
X213294Y132471D01*
X212731Y132283D01*
X212356D01*
X211794Y132471D01*
X211419Y133033D01*
X211232Y133970D01*
Y134533D01*
X211419Y135470D01*
X211794Y136032D01*
X212356Y136220D01*
X212731D01*
X218448Y115597D02*
X218636Y115972D01*
X219011Y116347D01*
X219386Y116535D01*
X220135D01*
X220510Y116347D01*
X220885Y115972D01*
X221072Y115597D01*
X221260Y115035D01*
Y114098D01*
X221072Y113536D01*
X220885Y113161D01*
X220510Y112786D01*
X220135Y112598D01*
X219386D01*
X219011Y112786D01*
X218636Y113161D01*
X218448Y113536D01*
X217155Y115597D02*
Y115785D01*
X216968Y116160D01*
X216780Y116347D01*
X216405Y116535D01*
X215655D01*
X215281Y116347D01*
X215093Y116160D01*
X214906Y115785D01*
Y115410D01*
X215093Y115035D01*
X215468Y114473D01*
X217342Y112598D01*
X214718D01*
X213650Y115597D02*
Y115785D01*
X213462Y116160D01*
X213275Y116347D01*
X212900Y116535D01*
X212150D01*
X211776Y116347D01*
X211588Y116160D01*
X211401Y115785D01*
Y115410D01*
X211588Y115035D01*
X211963Y114473D01*
X213837Y112598D01*
X211213D01*
X216874Y154180D02*
X217061Y154555D01*
X217436Y154930D01*
X217811Y155117D01*
X218560D01*
X218935Y154930D01*
X219310Y154555D01*
X219498Y154180D01*
X219685Y153618D01*
Y152681D01*
X219498Y152118D01*
X219310Y151743D01*
X218935Y151368D01*
X218560Y151181D01*
X217811D01*
X217436Y151368D01*
X217061Y151743D01*
X216874Y152118D01*
X215580Y154180D02*
Y154367D01*
X215393Y154742D01*
X215205Y154930D01*
X214830Y155117D01*
X214081D01*
X213706Y154930D01*
X213518Y154742D01*
X213331Y154367D01*
Y153993D01*
X213518Y153618D01*
X213893Y153056D01*
X215768Y151181D01*
X213143D01*
X212263Y154367D02*
X211888Y154555D01*
X211325Y155117D01*
Y151181D01*
X106047Y178688D02*
X106234Y179063D01*
X106609Y179438D01*
X106984Y179625D01*
X107734D01*
X108108Y179438D01*
X108483Y179063D01*
X108671Y178688D01*
X108858Y178126D01*
Y177189D01*
X108671Y176626D01*
X108483Y176251D01*
X108108Y175876D01*
X107734Y175689D01*
X106984D01*
X106609Y175876D01*
X106234Y176251D01*
X106047Y176626D01*
X104941Y178875D02*
X104566Y179063D01*
X104004Y179625D01*
Y175689D01*
X101867Y178688D02*
Y178875D01*
X101680Y179250D01*
X101492Y179438D01*
X101117Y179625D01*
X100367D01*
X99993Y179438D01*
X99805Y179250D01*
X99618Y178875D01*
Y178500D01*
X99805Y178126D01*
X100180Y177563D01*
X102054Y175689D01*
X99430D01*
X53881Y275440D02*
X54069Y275815D01*
X54444Y276190D01*
X54818Y276377D01*
X55568D01*
X55943Y276190D01*
X56318Y275815D01*
X56506Y275440D01*
X56693Y274878D01*
Y273940D01*
X56506Y273378D01*
X56318Y273003D01*
X55943Y272628D01*
X55568Y272441D01*
X54818D01*
X54444Y272628D01*
X54069Y273003D01*
X53881Y273378D01*
X52401Y276377D02*
X50339D01*
X51463Y274878D01*
X50901D01*
X50526Y274690D01*
X50339Y274503D01*
X50151Y273940D01*
Y273566D01*
X50339Y273003D01*
X50714Y272628D01*
X51276Y272441D01*
X51838D01*
X52401Y272628D01*
X52588Y272816D01*
X52776Y273191D01*
X49270Y275627D02*
X48896Y275815D01*
X48333Y276377D01*
Y272441D01*
X76322Y97881D02*
X76510Y98256D01*
X76885Y98631D01*
X77259Y98818D01*
X78009D01*
X78384Y98631D01*
X78759Y98256D01*
X78946Y97881D01*
X79134Y97319D01*
Y96381D01*
X78946Y95819D01*
X78759Y95444D01*
X78384Y95069D01*
X78009Y94882D01*
X77259D01*
X76885Y95069D01*
X76510Y95444D01*
X76322Y95819D01*
X74842Y98818D02*
X72780D01*
X73904Y97319D01*
X73342D01*
X72967Y97131D01*
X72780Y96944D01*
X72592Y96381D01*
Y96007D01*
X72780Y95444D01*
X73155Y95069D01*
X73717Y94882D01*
X74279D01*
X74842Y95069D01*
X75029Y95257D01*
X75216Y95632D01*
X69462Y98256D02*
X69650Y98631D01*
X70212Y98818D01*
X70587D01*
X71149Y98631D01*
X71524Y98068D01*
X71711Y97131D01*
Y96194D01*
X71524Y95444D01*
X71149Y95069D01*
X70587Y94882D01*
X70399D01*
X69837Y95069D01*
X69462Y95444D01*
X69275Y96007D01*
Y96194D01*
X69462Y96756D01*
X69837Y97131D01*
X70399Y97319D01*
X70587D01*
X71149Y97131D01*
X71524Y96756D01*
X71711Y96194D01*
X242070Y138432D02*
X242258Y138807D01*
X242633Y139182D01*
X243007Y139369D01*
X243757D01*
X244132Y139182D01*
X244507Y138807D01*
X244694Y138432D01*
X244882Y137870D01*
Y136933D01*
X244694Y136370D01*
X244507Y135995D01*
X244132Y135620D01*
X243757Y135433D01*
X243007D01*
X242633Y135620D01*
X242258Y135995D01*
X242070Y136370D01*
X240590Y139369D02*
X238528D01*
X239652Y137870D01*
X239090D01*
X238715Y137682D01*
X238528Y137495D01*
X238340Y136933D01*
Y136558D01*
X238528Y135995D01*
X238903Y135620D01*
X239465Y135433D01*
X240027D01*
X240590Y135620D01*
X240777Y135808D01*
X240965Y136183D01*
X236335Y139369D02*
X236897Y139182D01*
X237272Y138619D01*
X237459Y137682D01*
Y137120D01*
X237272Y136183D01*
X236897Y135620D01*
X236335Y135433D01*
X235960D01*
X235398Y135620D01*
X235023Y136183D01*
X234835Y137120D01*
Y137682D01*
X235023Y138619D01*
X235398Y139182D01*
X235960Y139369D01*
X236335D01*
X170866Y142125D02*
Y139314D01*
X170679Y138751D01*
X170304Y138376D01*
X169741Y138189D01*
X169367D01*
X168804Y138376D01*
X168430Y138751D01*
X168242Y139314D01*
Y142125D01*
X167155Y141375D02*
X166780Y141563D01*
X166218Y142125D01*
Y138189D01*
X72047Y47637D02*
Y44825D01*
X71860Y44263D01*
X71485Y43888D01*
X70923Y43701D01*
X70548D01*
X69985Y43888D01*
X69611Y44263D01*
X69423Y44825D01*
Y47637D01*
X66087Y47075D02*
X66274Y47449D01*
X66837Y47637D01*
X67211D01*
X67774Y47449D01*
X68149Y46887D01*
X68336Y45950D01*
Y45013D01*
X68149Y44263D01*
X67774Y43888D01*
X67211Y43701D01*
X67024D01*
X66462Y43888D01*
X66087Y44263D01*
X65899Y44825D01*
Y45013D01*
X66087Y45575D01*
X66462Y45950D01*
X67024Y46137D01*
X67211D01*
X67774Y45950D01*
X68149Y45575D01*
X68336Y45013D01*
X51618Y90696D02*
X51805Y91071D01*
X52180Y91446D01*
X52555Y91633D01*
X53304D01*
X53679Y91446D01*
X54054Y91071D01*
X54242Y90696D01*
X54429Y90134D01*
Y89196D01*
X54242Y88634D01*
X54054Y88259D01*
X53679Y87884D01*
X53304Y87697D01*
X52555D01*
X52180Y87884D01*
X51805Y88259D01*
X51618Y88634D01*
X50324Y90696D02*
Y90883D01*
X50137Y91258D01*
X49949Y91446D01*
X49575Y91633D01*
X48825D01*
X48450Y91446D01*
X48263Y91258D01*
X48075Y90883D01*
Y90508D01*
X48263Y90134D01*
X48637Y89571D01*
X50512Y87697D01*
X47888D01*
X44570Y90321D02*
X44757Y89759D01*
X45132Y89384D01*
X45695Y89196D01*
X45882D01*
X46444Y89384D01*
X46819Y89759D01*
X47007Y90321D01*
Y90508D01*
X46819Y91071D01*
X46444Y91446D01*
X45882Y91633D01*
X45695D01*
X45132Y91446D01*
X44757Y91071D01*
X44570Y90321D01*
Y89384D01*
X44757Y88447D01*
X45132Y87884D01*
X45695Y87697D01*
X46069D01*
X46632Y87884D01*
X46819Y88259D01*
X8803Y33314D02*
X8990Y33689D01*
X9365Y34064D01*
X9740Y34251D01*
X10490D01*
X10864Y34064D01*
X11239Y33689D01*
X11427Y33314D01*
X11614Y32752D01*
Y31814D01*
X11427Y31252D01*
X11239Y30877D01*
X10864Y30502D01*
X10490Y30315D01*
X9740D01*
X9365Y30502D01*
X8990Y30877D01*
X8803Y31252D01*
X7509Y33314D02*
Y33501D01*
X7322Y33876D01*
X7134Y34064D01*
X6760Y34251D01*
X6010D01*
X5635Y34064D01*
X5447Y33876D01*
X5260Y33501D01*
Y33127D01*
X5447Y32752D01*
X5822Y32189D01*
X7697Y30315D01*
X5073D01*
X3255Y34251D02*
X3817Y34064D01*
X4004Y33689D01*
Y33314D01*
X3817Y32939D01*
X3442Y32752D01*
X2692Y32564D01*
X2130Y32377D01*
X1755Y32002D01*
X1568Y31627D01*
Y31065D01*
X1755Y30690D01*
X1942Y30502D01*
X2505Y30315D01*
X3255D01*
X3817Y30502D01*
X4004Y30690D01*
X4192Y31065D01*
Y31627D01*
X4004Y32002D01*
X3629Y32377D01*
X3067Y32564D01*
X2317Y32752D01*
X1942Y32939D01*
X1755Y33314D01*
Y33689D01*
X1942Y34064D01*
X2505Y34251D01*
X3255D01*
X20614Y33314D02*
X20801Y33689D01*
X21176Y34064D01*
X21551Y34251D01*
X22301D01*
X22675Y34064D01*
X23050Y33689D01*
X23238Y33314D01*
X23425Y32752D01*
Y31814D01*
X23238Y31252D01*
X23050Y30877D01*
X22675Y30502D01*
X22301Y30315D01*
X21551D01*
X21176Y30502D01*
X20801Y30877D01*
X20614Y31252D01*
X19320Y33314D02*
Y33501D01*
X19133Y33876D01*
X18946Y34064D01*
X18571Y34251D01*
X17821D01*
X17446Y34064D01*
X17258Y33876D01*
X17071Y33501D01*
Y33127D01*
X17258Y32752D01*
X17633Y32189D01*
X19508Y30315D01*
X16884D01*
X13379Y34251D02*
X15253Y30315D01*
X16003Y34251D02*
X13379D01*
X29127Y122207D02*
X29314Y122582D01*
X29689Y122957D01*
X30064Y123144D01*
X30814D01*
X31188Y122957D01*
X31563Y122582D01*
X31751Y122207D01*
X31938Y121645D01*
Y120707D01*
X31751Y120145D01*
X31563Y119770D01*
X31188Y119395D01*
X30814Y119208D01*
X30064D01*
X29689Y119395D01*
X29314Y119770D01*
X29127Y120145D01*
X27833Y122207D02*
Y122394D01*
X27646Y122769D01*
X27459Y122957D01*
X27084Y123144D01*
X26334D01*
X25959Y122957D01*
X25771Y122769D01*
X25584Y122394D01*
Y122019D01*
X25771Y121645D01*
X26146Y121082D01*
X28021Y119208D01*
X25397D01*
X22266Y122582D02*
X22454Y122957D01*
X23016Y123144D01*
X23391D01*
X23953Y122957D01*
X24328Y122394D01*
X24516Y121457D01*
Y120520D01*
X24328Y119770D01*
X23953Y119395D01*
X23391Y119208D01*
X23204D01*
X22641Y119395D01*
X22266Y119770D01*
X22079Y120333D01*
Y120520D01*
X22266Y121082D01*
X22641Y121457D01*
X23204Y121645D01*
X23391D01*
X23953Y121457D01*
X24328Y121082D01*
X24516Y120520D01*
X178347Y205512D02*
X182283Y202888D01*
X178347D02*
X182283Y205512D01*
X178347Y200695D02*
X182283D01*
X178347Y202007D02*
Y199383D01*
X182283Y195915D02*
X178347Y197415D01*
X182283Y198914D01*
X180971Y198352D02*
Y196477D01*
X178347Y194997D02*
X182283D01*
Y192747D01*
X179097Y192316D02*
X178910Y191941D01*
X178347Y191379D01*
X182283D01*
X167368Y87805D02*
Y84993D01*
X167181Y84431D01*
X166806Y84056D01*
X166244Y83868D01*
X165869D01*
X165307Y84056D01*
X164932Y84431D01*
X164744Y84993D01*
Y87805D01*
X163470Y86867D02*
Y87055D01*
X163282Y87430D01*
X163095Y87617D01*
X162720Y87805D01*
X161970D01*
X161595Y87617D01*
X161408Y87430D01*
X161221Y87055D01*
Y86680D01*
X161408Y86305D01*
X161783Y85743D01*
X163657Y83868D01*
X161033D01*
X32677Y161416D02*
Y158605D01*
X32490Y158043D01*
X32115Y157668D01*
X31553Y157480D01*
X31178D01*
X30615Y157668D01*
X30240Y158043D01*
X30053Y158605D01*
Y161416D01*
X27092D02*
X28966Y158792D01*
X26154D01*
X27092Y161416D02*
Y157480D01*
X265453Y103641D02*
Y100829D01*
X265265Y100267D01*
X264891Y99892D01*
X264328Y99705D01*
X263953D01*
X263391Y99892D01*
X263016Y100267D01*
X262829Y100829D01*
Y103641D01*
X259117D02*
X260992Y99705D01*
X261741Y103641D02*
X259117D01*
X112598Y229527D02*
Y225590D01*
Y229527D02*
X110912D01*
X110349Y229339D01*
X110162Y229152D01*
X109974Y228777D01*
Y228402D01*
X110162Y228027D01*
X110349Y227840D01*
X110912Y227652D01*
X112598D01*
X111286D02*
X109974Y225590D01*
X107219Y229527D02*
X109093Y226903D01*
X106282D01*
X107219Y229527D02*
Y225590D01*
X103714Y229527D02*
X105588Y226903D01*
X102777D01*
X103714Y229527D02*
Y225590D01*
X125197Y231495D02*
Y227559D01*
Y231495D02*
X123510D01*
X122948Y231308D01*
X122760Y231120D01*
X122573Y230746D01*
Y230371D01*
X122760Y229996D01*
X122948Y229808D01*
X123510Y229621D01*
X125197D01*
X123885D02*
X122573Y227559D01*
X119817Y231495D02*
X121692Y228871D01*
X118880D01*
X119817Y231495D02*
Y227559D01*
X117812Y231495D02*
X115750D01*
X116875Y229996D01*
X116312D01*
X115937Y229808D01*
X115750Y229621D01*
X115563Y229059D01*
Y228684D01*
X115750Y228121D01*
X116125Y227747D01*
X116687Y227559D01*
X117250D01*
X117812Y227747D01*
X117999Y227934D01*
X118187Y228309D01*
X132269Y258305D02*
Y254368D01*
Y258305D02*
X130582D01*
X130019Y258117D01*
X129832Y257930D01*
X129644Y257555D01*
Y257180D01*
X129832Y256805D01*
X130019Y256618D01*
X130582Y256430D01*
X132269D01*
X130956D02*
X129644Y254368D01*
X126889Y258305D02*
X128763Y255681D01*
X125952D01*
X126889Y258305D02*
Y254368D01*
X125071Y257367D02*
Y257555D01*
X124883Y257930D01*
X124696Y258117D01*
X124321Y258305D01*
X123572D01*
X123197Y258117D01*
X123009Y257930D01*
X122822Y257555D01*
Y257180D01*
X123009Y256805D01*
X123384Y256243D01*
X125258Y254368D01*
X122634D01*
X92815Y206101D02*
Y202165D01*
Y206101D02*
X91128D01*
X90566Y205914D01*
X90378Y205727D01*
X90191Y205352D01*
Y204977D01*
X90378Y204602D01*
X90566Y204415D01*
X91128Y204227D01*
X92815D01*
X91503D02*
X90191Y202165D01*
X87436Y206101D02*
X89310Y203477D01*
X86498D01*
X87436Y206101D02*
Y202165D01*
X85805Y205352D02*
X85430Y205539D01*
X84868Y206101D01*
Y202165D01*
X103543Y212598D02*
Y208661D01*
Y212598D02*
X101856D01*
X101294Y212410D01*
X101107Y212223D01*
X100919Y211848D01*
Y211473D01*
X101107Y211098D01*
X101294Y210911D01*
X101856Y210723D01*
X103543D01*
X102231D02*
X100919Y208661D01*
X98164Y212598D02*
X100038Y209974D01*
X97227D01*
X98164Y212598D02*
Y208661D01*
X95409Y212598D02*
X95971Y212410D01*
X96346Y211848D01*
X96533Y210911D01*
Y210348D01*
X96346Y209411D01*
X95971Y208849D01*
X95409Y208661D01*
X95034D01*
X94471Y208849D01*
X94096Y209411D01*
X93909Y210348D01*
Y210911D01*
X94096Y211848D01*
X94471Y212410D01*
X95034Y212598D01*
X95409D01*
X92913Y266928D02*
Y262992D01*
Y266928D02*
X91227D01*
X90664Y266741D01*
X90477Y266553D01*
X90289Y266178D01*
Y265804D01*
X90477Y265429D01*
X90664Y265241D01*
X91227Y265054D01*
X92913D01*
X91601D02*
X90289Y262992D01*
X89221Y265991D02*
Y266178D01*
X89034Y266553D01*
X88846Y266741D01*
X88471Y266928D01*
X87721D01*
X87347Y266741D01*
X87159Y266553D01*
X86972Y266178D01*
Y265804D01*
X87159Y265429D01*
X87534Y264866D01*
X89408Y262992D01*
X86784D01*
X84029Y266928D02*
X85903Y264304D01*
X83092D01*
X84029Y266928D02*
Y262992D01*
X264862Y247243D02*
Y243307D01*
Y247243D02*
X263175D01*
X262613Y247056D01*
X262425Y246868D01*
X262238Y246494D01*
Y246119D01*
X262425Y245744D01*
X262613Y245556D01*
X263175Y245369D01*
X264862D01*
X263550D02*
X262238Y243307D01*
X261357Y246494D02*
X260982Y246681D01*
X260420Y247243D01*
Y243307D01*
X258283Y246306D02*
Y246494D01*
X258096Y246868D01*
X257908Y247056D01*
X257533Y247243D01*
X256784D01*
X256409Y247056D01*
X256221Y246868D01*
X256034Y246494D01*
Y246119D01*
X256221Y245744D01*
X256596Y245181D01*
X258471Y243307D01*
X255847D01*
X263287Y236613D02*
Y232677D01*
Y236613D02*
X261600D01*
X261038Y236426D01*
X260851Y236239D01*
X260663Y235864D01*
Y235489D01*
X260851Y235114D01*
X261038Y234926D01*
X261600Y234739D01*
X263287D01*
X261975D02*
X260663Y232677D01*
X259782Y235864D02*
X259407Y236051D01*
X258845Y236613D01*
Y232677D01*
X256896Y235864D02*
X256521Y236051D01*
X255959Y236613D01*
Y232677D01*
X264862Y225590D02*
Y221654D01*
Y225590D02*
X263175D01*
X262613Y225402D01*
X262425Y225215D01*
X262238Y224840D01*
Y224465D01*
X262425Y224090D01*
X262613Y223903D01*
X263175Y223715D01*
X264862D01*
X263550D02*
X262238Y221654D01*
X261357Y224840D02*
X260982Y225027D01*
X260420Y225590D01*
Y221654D01*
X257346Y225590D02*
X257908Y225402D01*
X258283Y224840D01*
X258471Y223903D01*
Y223341D01*
X258283Y222403D01*
X257908Y221841D01*
X257346Y221654D01*
X256971D01*
X256409Y221841D01*
X256034Y222403D01*
X255847Y223341D01*
Y223903D01*
X256034Y224840D01*
X256409Y225402D01*
X256971Y225590D01*
X257346D01*
X261319Y214566D02*
Y210630D01*
Y214566D02*
X259632D01*
X259070Y214379D01*
X258882Y214191D01*
X258695Y213816D01*
Y213441D01*
X258882Y213067D01*
X259070Y212879D01*
X259632Y212692D01*
X261319D01*
X260007D02*
X258695Y210630D01*
X255377Y213254D02*
X255565Y212692D01*
X255940Y212317D01*
X256502Y212129D01*
X256689D01*
X257252Y212317D01*
X257626Y212692D01*
X257814Y213254D01*
Y213441D01*
X257626Y214004D01*
X257252Y214379D01*
X256689Y214566D01*
X256502D01*
X255940Y214379D01*
X255565Y214004D01*
X255377Y213254D01*
Y212317D01*
X255565Y211380D01*
X255940Y210817D01*
X256502Y210630D01*
X256877D01*
X257439Y210817D01*
X257626Y211192D01*
X151969Y12598D02*
Y8661D01*
Y12598D02*
X150282D01*
X149719Y12410D01*
X149532Y12223D01*
X149344Y11848D01*
Y11473D01*
X149532Y11098D01*
X149719Y10911D01*
X150282Y10723D01*
X151969D01*
X150656D02*
X149344Y8661D01*
X147526Y12598D02*
X148089Y12410D01*
X148276Y12035D01*
Y11660D01*
X148089Y11286D01*
X147714Y11098D01*
X146964Y10911D01*
X146402Y10723D01*
X146027Y10348D01*
X145839Y9973D01*
Y9411D01*
X146027Y9036D01*
X146214Y8849D01*
X146776Y8661D01*
X147526D01*
X148089Y8849D01*
X148276Y9036D01*
X148463Y9411D01*
Y9973D01*
X148276Y10348D01*
X147901Y10723D01*
X147339Y10911D01*
X146589Y11098D01*
X146214Y11286D01*
X146027Y11660D01*
Y12035D01*
X146214Y12410D01*
X146776Y12598D01*
X147526D01*
X174016Y55511D02*
Y51575D01*
Y55511D02*
X172329D01*
X171766Y55323D01*
X171579Y55136D01*
X171392Y54761D01*
Y54386D01*
X171579Y54011D01*
X171766Y53824D01*
X172329Y53637D01*
X174016D01*
X172704D02*
X171392Y51575D01*
X168261Y55511D02*
X170136D01*
X170323Y53824D01*
X170136Y54011D01*
X169573Y54199D01*
X169011D01*
X168449Y54011D01*
X168074Y53637D01*
X167887Y53074D01*
Y52699D01*
X168074Y52137D01*
X168449Y51762D01*
X169011Y51575D01*
X169573D01*
X170136Y51762D01*
X170323Y51950D01*
X170511Y52324D01*
X97638Y52361D02*
Y48425D01*
Y52361D02*
X95951D01*
X95389Y52174D01*
X95201Y51986D01*
X95014Y51612D01*
Y51237D01*
X95201Y50862D01*
X95389Y50674D01*
X95951Y50487D01*
X97638D01*
X96326D02*
X95014Y48425D01*
X92258Y52361D02*
X94133Y49737D01*
X91321D01*
X92258Y52361D02*
Y48425D01*
X109843Y52755D02*
Y48819D01*
Y52755D02*
X108156D01*
X107593Y52568D01*
X107406Y52380D01*
X107218Y52005D01*
Y51630D01*
X107406Y51256D01*
X107593Y51068D01*
X108156Y50881D01*
X109843D01*
X108530D02*
X107218Y48819D01*
X105963Y52755D02*
X103901D01*
X105025Y51256D01*
X104463D01*
X104088Y51068D01*
X103901Y50881D01*
X103713Y50318D01*
Y49944D01*
X103901Y49381D01*
X104276Y49006D01*
X104838Y48819D01*
X105400D01*
X105963Y49006D01*
X106150Y49194D01*
X106337Y49569D01*
X185039Y55511D02*
Y51575D01*
Y55511D02*
X183352D01*
X182790Y55323D01*
X182603Y55136D01*
X182415Y54761D01*
Y54386D01*
X182603Y54011D01*
X182790Y53824D01*
X183352Y53637D01*
X185039D01*
X183727D02*
X182415Y51575D01*
X181347Y54574D02*
Y54761D01*
X181159Y55136D01*
X180972Y55323D01*
X180597Y55511D01*
X179847D01*
X179472Y55323D01*
X179285Y55136D01*
X179098Y54761D01*
Y54386D01*
X179285Y54011D01*
X179660Y53449D01*
X181534Y51575D01*
X178910D01*
X69291Y86126D02*
X67604D01*
X67042Y86314D01*
X66855Y86501D01*
X66667Y86876D01*
Y87438D01*
X66855Y87813D01*
X67042Y88001D01*
X67604Y88188D01*
X69291D01*
Y84252D01*
X63537Y87626D02*
X63724Y88001D01*
X64287Y88188D01*
X64662D01*
X65224Y88001D01*
X65599Y87438D01*
X65786Y86501D01*
Y85564D01*
X65599Y84814D01*
X65224Y84439D01*
X64662Y84252D01*
X64474D01*
X63912Y84439D01*
X63537Y84814D01*
X63350Y85377D01*
Y85564D01*
X63537Y86126D01*
X63912Y86501D01*
X64474Y86689D01*
X64662D01*
X65224Y86501D01*
X65599Y86126D01*
X65786Y85564D01*
X51575Y175496D02*
X49888D01*
X49326Y175684D01*
X49138Y175871D01*
X48951Y176246D01*
Y176809D01*
X49138Y177183D01*
X49326Y177371D01*
X49888Y177558D01*
X51575D01*
Y173622D01*
X45821Y177558D02*
X47695D01*
X47882Y175871D01*
X47695Y176059D01*
X47133Y176246D01*
X46570D01*
X46008Y176059D01*
X45633Y175684D01*
X45446Y175121D01*
Y174747D01*
X45633Y174184D01*
X46008Y173810D01*
X46570Y173622D01*
X47133D01*
X47695Y173810D01*
X47882Y173997D01*
X48070Y174372D01*
X209842Y263680D02*
Y259744D01*
X207218Y263680D02*
Y259744D01*
X209842Y261806D02*
X207218D01*
X205756Y263680D02*
X203695D01*
X204819Y262181D01*
X204257D01*
X203882Y261993D01*
X203695Y261806D01*
X203507Y261244D01*
Y260869D01*
X203695Y260306D01*
X204069Y259931D01*
X204632Y259744D01*
X205194D01*
X205756Y259931D01*
X205944Y260119D01*
X206131Y260494D01*
X163779Y24015D02*
Y20079D01*
X161530D01*
X161099Y23265D02*
X160724Y23453D01*
X160162Y24015D01*
Y20079D01*
X15153Y119192D02*
Y116193D01*
X15341Y115631D01*
X15528Y115443D01*
X15903Y115256D01*
X16278D01*
X16653Y115443D01*
X16840Y115631D01*
X17028Y116193D01*
Y116568D01*
X13954Y118255D02*
Y118442D01*
X13766Y118817D01*
X13579Y119005D01*
X13204Y119192D01*
X12454D01*
X12079Y119005D01*
X11892Y118817D01*
X11704Y118442D01*
Y118068D01*
X11892Y117693D01*
X12267Y117130D01*
X14141Y115256D01*
X11517D01*
X18504Y105806D02*
Y101870D01*
Y105806D02*
X17192D01*
X16630Y105619D01*
X16255Y105244D01*
X16067Y104869D01*
X15880Y104307D01*
Y103370D01*
X16067Y102807D01*
X16255Y102432D01*
X16630Y102058D01*
X17192Y101870D01*
X18504D01*
X14999Y105057D02*
X14624Y105244D01*
X14062Y105806D01*
Y101870D01*
X56717Y141571D02*
X56904Y141946D01*
X57279Y142320D01*
X57654Y142508D01*
X58404D01*
X58779Y142320D01*
X59153Y141946D01*
X59341Y141571D01*
X59528Y141008D01*
Y140071D01*
X59341Y139509D01*
X59153Y139134D01*
X58779Y138759D01*
X58404Y138572D01*
X57654D01*
X57279Y138759D01*
X56904Y139134D01*
X56717Y139509D01*
X55611Y142508D02*
Y138572D01*
Y142508D02*
X53924D01*
X53362Y142320D01*
X53174Y142133D01*
X52987Y141758D01*
Y141383D01*
X53174Y141008D01*
X53362Y140821D01*
X53924Y140633D01*
X55611D01*
X54299D02*
X52987Y138572D01*
X52106Y141758D02*
X51731Y141946D01*
X51169Y142508D01*
Y138572D01*
X171992Y187349D02*
X172179Y187724D01*
X172554Y188099D01*
X172929Y188287D01*
X173679D01*
X174053Y188099D01*
X174428Y187724D01*
X174616Y187349D01*
X174803Y186787D01*
Y185850D01*
X174616Y185288D01*
X174428Y184913D01*
X174053Y184538D01*
X173679Y184350D01*
X172929D01*
X172554Y184538D01*
X172179Y184913D01*
X171992Y185288D01*
X170511Y188287D02*
X168449D01*
X169574Y186787D01*
X169011D01*
X168637Y186600D01*
X168449Y186412D01*
X168262Y185850D01*
Y185475D01*
X168449Y184913D01*
X168824Y184538D01*
X169386Y184350D01*
X169949D01*
X170511Y184538D01*
X170698Y184725D01*
X170886Y185100D01*
X165131Y188287D02*
X167006D01*
X167193Y186600D01*
X167006Y186787D01*
X166444Y186975D01*
X165881D01*
X165319Y186787D01*
X164944Y186412D01*
X164757Y185850D01*
Y185475D01*
X164944Y184913D01*
X165319Y184538D01*
X165881Y184350D01*
X166444D01*
X167006Y184538D01*
X167193Y184725D01*
X167381Y185100D01*
X48763Y269141D02*
X48951Y269516D01*
X49326Y269890D01*
X49700Y270078D01*
X50450D01*
X50825Y269890D01*
X51200Y269516D01*
X51387Y269141D01*
X51575Y268578D01*
Y267641D01*
X51387Y267079D01*
X51200Y266704D01*
X50825Y266329D01*
X50450Y266142D01*
X49700D01*
X49326Y266329D01*
X48951Y266704D01*
X48763Y267079D01*
X47282Y270078D02*
X45221D01*
X46345Y268578D01*
X45783D01*
X45408Y268391D01*
X45221Y268203D01*
X45033Y267641D01*
Y267266D01*
X45221Y266704D01*
X45596Y266329D01*
X46158Y266142D01*
X46720D01*
X47282Y266329D01*
X47470Y266517D01*
X47657Y266892D01*
X43965Y269141D02*
Y269328D01*
X43777Y269703D01*
X43590Y269890D01*
X43215Y270078D01*
X42465D01*
X42090Y269890D01*
X41903Y269703D01*
X41716Y269328D01*
Y268953D01*
X41903Y268578D01*
X42278Y268016D01*
X44152Y266142D01*
X41528D01*
X203488Y166779D02*
X203675Y167153D01*
X204050Y167528D01*
X204425Y167716D01*
X205175D01*
X205550Y167528D01*
X205924Y167153D01*
X206112Y166779D01*
X206299Y166216D01*
Y165279D01*
X206112Y164717D01*
X205924Y164342D01*
X205550Y163967D01*
X205175Y163779D01*
X204425D01*
X204050Y163967D01*
X203675Y164342D01*
X203488Y164717D01*
X202194Y166779D02*
Y166966D01*
X202007Y167341D01*
X201819Y167528D01*
X201445Y167716D01*
X200695D01*
X200320Y167528D01*
X200132Y167341D01*
X199945Y166966D01*
Y166591D01*
X200132Y166216D01*
X200507Y165654D01*
X202382Y163779D01*
X199758D01*
X197002Y167716D02*
X198877Y165092D01*
X196065D01*
X197002Y167716D02*
Y163779D01*
X204669Y187448D02*
X204856Y187823D01*
X205231Y188198D01*
X205606Y188385D01*
X206356D01*
X206731Y188198D01*
X207105Y187823D01*
X207293Y187448D01*
X207480Y186885D01*
Y185948D01*
X207293Y185386D01*
X207105Y185011D01*
X206731Y184636D01*
X206356Y184449D01*
X205606D01*
X205231Y184636D01*
X204856Y185011D01*
X204669Y185386D01*
X203376Y187448D02*
Y187635D01*
X203188Y188010D01*
X203001Y188198D01*
X202626Y188385D01*
X201876D01*
X201501Y188198D01*
X201314Y188010D01*
X201126Y187635D01*
Y187260D01*
X201314Y186885D01*
X201689Y186323D01*
X203563Y184449D01*
X200939D01*
X199683Y188385D02*
X197621D01*
X198746Y186885D01*
X198184D01*
X197809Y186698D01*
X197621Y186511D01*
X197434Y185948D01*
Y185573D01*
X197621Y185011D01*
X197996Y184636D01*
X198558Y184449D01*
X199121D01*
X199683Y184636D01*
X199870Y184824D01*
X200058Y185199D01*
X140496Y106542D02*
X140683Y106917D01*
X141058Y107292D01*
X141433Y107480D01*
X142183D01*
X142557Y107292D01*
X142932Y106917D01*
X143120Y106542D01*
X143307Y105980D01*
Y105043D01*
X143120Y104481D01*
X142932Y104106D01*
X142557Y103731D01*
X142183Y103543D01*
X141433D01*
X141058Y103731D01*
X140683Y104106D01*
X140496Y104481D01*
X139390Y106730D02*
X139015Y106917D01*
X138452Y107480D01*
Y103543D01*
X134066Y106167D02*
X134254Y105605D01*
X134629Y105230D01*
X135191Y105043D01*
X135379D01*
X135941Y105230D01*
X136316Y105605D01*
X136503Y106167D01*
Y106355D01*
X136316Y106917D01*
X135941Y107292D01*
X135379Y107480D01*
X135191D01*
X134629Y107292D01*
X134254Y106917D01*
X134066Y106167D01*
Y105230D01*
X134254Y104293D01*
X134629Y103731D01*
X135191Y103543D01*
X135566D01*
X136128Y103731D01*
X136316Y104106D01*
X163330Y106542D02*
X163518Y106917D01*
X163892Y107292D01*
X164267Y107480D01*
X165017D01*
X165392Y107292D01*
X165767Y106917D01*
X165954Y106542D01*
X166142Y105980D01*
Y105043D01*
X165954Y104481D01*
X165767Y104106D01*
X165392Y103731D01*
X165017Y103543D01*
X164267D01*
X163892Y103731D01*
X163518Y104106D01*
X163330Y104481D01*
X162224Y106730D02*
X161849Y106917D01*
X161287Y107480D01*
Y103543D01*
X158401Y107480D02*
X158963Y107292D01*
X159150Y106917D01*
Y106542D01*
X158963Y106167D01*
X158588Y105980D01*
X157838Y105793D01*
X157276Y105605D01*
X156901Y105230D01*
X156714Y104855D01*
Y104293D01*
X156901Y103918D01*
X157089Y103731D01*
X157651Y103543D01*
X158401D01*
X158963Y103731D01*
X159150Y103918D01*
X159338Y104293D01*
Y104855D01*
X159150Y105230D01*
X158775Y105605D01*
X158213Y105793D01*
X157463Y105980D01*
X157089Y106167D01*
X156901Y106542D01*
Y106917D01*
X157089Y107292D01*
X157651Y107480D01*
X158401D01*
X150732Y211267D02*
X150919Y211642D01*
X151294Y212016D01*
X151669Y212204D01*
X152419D01*
X152794Y212016D01*
X153168Y211642D01*
X153356Y211267D01*
X153543Y210704D01*
Y209767D01*
X153356Y209205D01*
X153168Y208830D01*
X152794Y208455D01*
X152419Y208268D01*
X151669D01*
X151294Y208455D01*
X150919Y208830D01*
X150732Y209205D01*
X149626Y211454D02*
X149251Y211642D01*
X148689Y212204D01*
Y208268D01*
X144115Y212204D02*
X145990Y208268D01*
X146739Y212204D02*
X144115D01*
X78685Y166385D02*
X78872Y166760D01*
X79247Y167135D01*
X79622Y167322D01*
X80371D01*
X80746Y167135D01*
X81121Y166760D01*
X81309Y166385D01*
X81496Y165823D01*
Y164885D01*
X81309Y164323D01*
X81121Y163948D01*
X80746Y163573D01*
X80371Y163386D01*
X79622D01*
X79247Y163573D01*
X78872Y163948D01*
X78685Y164323D01*
X77579Y166572D02*
X77204Y166760D01*
X76641Y167322D01*
Y163386D01*
X72443Y166760D02*
X72630Y167135D01*
X73193Y167322D01*
X73567D01*
X74130Y167135D01*
X74505Y166572D01*
X74692Y165635D01*
Y164698D01*
X74505Y163948D01*
X74130Y163573D01*
X73567Y163386D01*
X73380D01*
X72818Y163573D01*
X72443Y163948D01*
X72255Y164510D01*
Y164698D01*
X72443Y165260D01*
X72818Y165635D01*
X73380Y165823D01*
X73567D01*
X74130Y165635D01*
X74505Y165260D01*
X74692Y164698D01*
X106244Y122290D02*
X106431Y122665D01*
X106806Y123040D01*
X107181Y123228D01*
X107931D01*
X108305Y123040D01*
X108680Y122665D01*
X108868Y122290D01*
X109055Y121728D01*
Y120791D01*
X108868Y120229D01*
X108680Y119854D01*
X108305Y119479D01*
X107931Y119291D01*
X107181D01*
X106806Y119479D01*
X106431Y119854D01*
X106244Y120229D01*
X105138Y122478D02*
X104763Y122665D01*
X104200Y123228D01*
Y119291D01*
X100002Y123228D02*
X101876D01*
X102064Y121541D01*
X101876Y121728D01*
X101314Y121915D01*
X100752D01*
X100189Y121728D01*
X99814Y121353D01*
X99627Y120791D01*
Y120416D01*
X99814Y119854D01*
X100189Y119479D01*
X100752Y119291D01*
X101314D01*
X101876Y119479D01*
X102064Y119666D01*
X102251Y120041D01*
X152700Y106542D02*
X152888Y106917D01*
X153263Y107292D01*
X153637Y107480D01*
X154387D01*
X154762Y107292D01*
X155137Y106917D01*
X155324Y106542D01*
X155512Y105980D01*
Y105043D01*
X155324Y104481D01*
X155137Y104106D01*
X154762Y103731D01*
X154387Y103543D01*
X153637D01*
X153263Y103731D01*
X152888Y104106D01*
X152700Y104481D01*
X151594Y106730D02*
X151219Y106917D01*
X150657Y107480D01*
Y103543D01*
X146834Y107480D02*
X148708Y104855D01*
X145896D01*
X146834Y107480D02*
Y103543D01*
X156155Y215397D02*
X155780Y215584D01*
X155405Y215959D01*
X155217Y216334D01*
Y217084D01*
X155405Y217459D01*
X155780Y217834D01*
X156155Y218021D01*
X156717Y218209D01*
X157654D01*
X158216Y218021D01*
X158591Y217834D01*
X158966Y217459D01*
X159153Y217084D01*
Y216334D01*
X158966Y215959D01*
X158591Y215584D01*
X158216Y215397D01*
X155967Y214291D02*
X155780Y213916D01*
X155217Y213354D01*
X159153D01*
X155217Y211030D02*
Y208968D01*
X156717Y210093D01*
Y209530D01*
X156904Y209156D01*
X157092Y208968D01*
X157654Y208781D01*
X158029D01*
X158591Y208968D01*
X158966Y209343D01*
X159153Y209905D01*
Y210468D01*
X158966Y211030D01*
X158779Y211217D01*
X158404Y211405D01*
X99846Y145027D02*
X100033Y145401D01*
X100408Y145776D01*
X100783Y145964D01*
X101533D01*
X101908Y145776D01*
X102283Y145401D01*
X102470Y145027D01*
X102657Y144464D01*
Y143527D01*
X102470Y142965D01*
X102283Y142590D01*
X101908Y142215D01*
X101533Y142028D01*
X100783D01*
X100408Y142215D01*
X100033Y142590D01*
X99846Y142965D01*
X98740Y145214D02*
X98365Y145401D01*
X97803Y145964D01*
Y142028D01*
X95854Y145214D02*
X95479Y145401D01*
X94916Y145964D01*
Y142028D01*
X94393Y154012D02*
X94581Y154387D01*
X94955Y154762D01*
X95330Y154950D01*
X96080D01*
X96455Y154762D01*
X96830Y154387D01*
X97017Y154012D01*
X97205Y153450D01*
Y152513D01*
X97017Y151951D01*
X96830Y151576D01*
X96455Y151201D01*
X96080Y151013D01*
X95330D01*
X94955Y151201D01*
X94581Y151576D01*
X94393Y151951D01*
X92350Y154950D02*
X92912Y154762D01*
X93100Y154387D01*
Y154012D01*
X92912Y153638D01*
X92537Y153450D01*
X91788Y153263D01*
X91225Y153075D01*
X90851Y152700D01*
X90663Y152325D01*
Y151763D01*
X90851Y151388D01*
X91038Y151201D01*
X91600Y151013D01*
X92350D01*
X92912Y151201D01*
X93100Y151388D01*
X93287Y151763D01*
Y152325D01*
X93100Y152700D01*
X92725Y153075D01*
X92163Y153263D01*
X91413Y153450D01*
X91038Y153638D01*
X90851Y154012D01*
Y154387D01*
X91038Y154762D01*
X91600Y154950D01*
X92350D01*
X107818Y110086D02*
X108006Y110460D01*
X108381Y110835D01*
X108756Y111023D01*
X109505D01*
X109880Y110835D01*
X110255Y110460D01*
X110442Y110086D01*
X110630Y109523D01*
Y108586D01*
X110442Y108024D01*
X110255Y107649D01*
X109880Y107274D01*
X109505Y107087D01*
X108756D01*
X108381Y107274D01*
X108006Y107649D01*
X107818Y108024D01*
X104088Y111023D02*
X105963Y107087D01*
X106712Y111023D02*
X104088D01*
X151126Y23078D02*
X151313Y23453D01*
X151688Y23828D01*
X152063Y24015D01*
X152812D01*
X153187Y23828D01*
X153562Y23453D01*
X153750Y23078D01*
X153937Y22515D01*
Y21578D01*
X153750Y21016D01*
X153562Y20641D01*
X153187Y20266D01*
X152812Y20079D01*
X152063D01*
X151688Y20266D01*
X151313Y20641D01*
X151126Y21016D01*
X147770Y23453D02*
X147958Y23828D01*
X148520Y24015D01*
X148895D01*
X149457Y23828D01*
X149832Y23265D01*
X150020Y22328D01*
Y21391D01*
X149832Y20641D01*
X149457Y20266D01*
X148895Y20079D01*
X148707D01*
X148145Y20266D01*
X147770Y20641D01*
X147583Y21203D01*
Y21391D01*
X147770Y21953D01*
X148145Y22328D01*
X148707Y22515D01*
X148895D01*
X149457Y22328D01*
X149832Y21953D01*
X150020Y21391D01*
X172779Y23078D02*
X172966Y23453D01*
X173341Y23828D01*
X173716Y24015D01*
X174466D01*
X174841Y23828D01*
X175216Y23453D01*
X175403Y23078D01*
X175591Y22515D01*
Y21578D01*
X175403Y21016D01*
X175216Y20641D01*
X174841Y20266D01*
X174466Y20079D01*
X173716D01*
X173341Y20266D01*
X172966Y20641D01*
X172779Y21016D01*
X169424Y24015D02*
X171298D01*
X171486Y22328D01*
X171298Y22515D01*
X170736Y22703D01*
X170174D01*
X169611Y22515D01*
X169237Y22140D01*
X169049Y21578D01*
Y21203D01*
X169237Y20641D01*
X169611Y20266D01*
X170174Y20079D01*
X170736D01*
X171298Y20266D01*
X171486Y20454D01*
X171673Y20829D01*
X140496Y23078D02*
X140683Y23453D01*
X141058Y23828D01*
X141433Y24015D01*
X142183D01*
X142557Y23828D01*
X142932Y23453D01*
X143120Y23078D01*
X143307Y22515D01*
Y21578D01*
X143120Y21016D01*
X142932Y20641D01*
X142557Y20266D01*
X142183Y20079D01*
X141433D01*
X141058Y20266D01*
X140683Y20641D01*
X140496Y21016D01*
X137515Y24015D02*
X139390Y21391D01*
X136578D01*
X137515Y24015D02*
Y20079D01*
X119629Y23078D02*
X119817Y23453D01*
X120192Y23828D01*
X120567Y24015D01*
X121316D01*
X121691Y23828D01*
X122066Y23453D01*
X122254Y23078D01*
X122441Y22515D01*
Y21578D01*
X122254Y21016D01*
X122066Y20641D01*
X121691Y20266D01*
X121316Y20079D01*
X120567D01*
X120192Y20266D01*
X119817Y20641D01*
X119629Y21016D01*
X118149Y24015D02*
X116087D01*
X117211Y22515D01*
X116649D01*
X116274Y22328D01*
X116087Y22140D01*
X115899Y21578D01*
Y21203D01*
X116087Y20641D01*
X116462Y20266D01*
X117024Y20079D01*
X117586D01*
X118149Y20266D01*
X118336Y20454D01*
X118524Y20829D01*
X130259Y23078D02*
X130447Y23453D01*
X130822Y23828D01*
X131196Y24015D01*
X131946D01*
X132321Y23828D01*
X132696Y23453D01*
X132883Y23078D01*
X133071Y22515D01*
Y21578D01*
X132883Y21016D01*
X132696Y20641D01*
X132321Y20266D01*
X131946Y20079D01*
X131196D01*
X130822Y20266D01*
X130447Y20641D01*
X130259Y21016D01*
X128966Y23078D02*
Y23265D01*
X128779Y23640D01*
X128591Y23828D01*
X128216Y24015D01*
X127466D01*
X127092Y23828D01*
X126904Y23640D01*
X126717Y23265D01*
Y22890D01*
X126904Y22515D01*
X127279Y21953D01*
X129153Y20079D01*
X126529D01*
D25*
X18012Y108465D02*
G03*
X18012Y108465I-394J0D01*
G01*
D27*
X114075Y80905D02*
G03*
X114075Y80905I-1280J0D01*
G01*
D90*
X47836Y92815D02*
G03*
X47836Y92815I-300J0D01*
G01*
X167036Y174213D02*
G03*
X167036Y174213I-300J0D01*
G01*
X27436Y99215D02*
X43036D01*
X27436Y86415D02*
X43036D01*
X35223Y129819D02*
X43123D01*
X35223Y142819D02*
X43123D01*
X239652Y97346D02*
X249718D01*
X256985Y98006D02*
Y121286D01*
X239652Y121946D02*
X249718D01*
X232385Y98006D02*
Y121286D01*
X184063Y177534D02*
Y182112D01*
X176763Y177534D02*
Y182112D01*
X156435Y179649D02*
X159964D01*
X119564Y176120D02*
Y179649D01*
Y139249D02*
X123093D01*
X159964D02*
Y142778D01*
Y176120D02*
Y179649D01*
X119564D02*
X123093D01*
X119564Y139249D02*
Y142778D01*
X156435Y139249D02*
X159964D01*
X36490Y171650D02*
X59770D01*
X60430Y154317D02*
Y164383D01*
X36490Y147050D02*
X59770D01*
X35830Y154317D02*
Y164383D01*
D91*
X114370Y80905D02*
G03*
X114370Y80905I-1575J0D01*
G01*
D92*
X248130Y59646D02*
Y62402D01*
Y37992D02*
Y40748D01*
X223721Y37992D02*
Y40748D01*
Y59646D02*
Y62402D01*
X248130D01*
X223721Y37992D02*
X248130D01*
X22579Y116220D02*
X43366D01*
X22579Y101496D02*
X43366D01*
X11024Y122835D02*
X18307D01*
X11024Y152362D02*
X18307D01*
Y122835D02*
Y123740D01*
Y151457D02*
Y152362D01*
X25315Y46524D02*
X64685D01*
X25315Y10068D02*
Y46524D01*
X64685Y10068D02*
Y46524D01*
X25315Y10068D02*
X26476D01*
X63523D02*
X64685D01*
X192700Y106893D02*
X197346D01*
Y152562D01*
X192700D02*
X197346D01*
X178054Y106893D02*
X182700D01*
X178054D02*
Y152562D01*
X182700D01*
X-21555Y190847D02*
X4035D01*
X-21555D02*
Y261713D01*
X4035D01*
X76279Y190847D02*
X78839D01*
Y200492D01*
Y252067D02*
Y261713D01*
X76279D02*
X78839D01*
D93*
X250197Y63287D02*
X250394D01*
D94*
X224673Y262024D02*
Y263690D01*
Y262857D01*
X229672D01*
X228838Y262024D01*
Y266189D02*
X229672Y267022D01*
Y268688D01*
X228838Y269521D01*
X225506D01*
X224673Y268688D01*
Y267022D01*
X225506Y266189D01*
X228838D01*
X215506Y262024D02*
X214673Y262857D01*
Y264523D01*
X215506Y265356D01*
X218839D01*
X219672Y264523D01*
Y262857D01*
X218839Y262024D01*
X218005D01*
X217172Y262857D01*
Y265356D01*
X214673Y208024D02*
Y209690D01*
Y208857D01*
X219672D01*
X218839Y208024D01*
X224673Y209356D02*
Y206024D01*
X228006Y209356D01*
X228838D01*
X229672Y208523D01*
Y206857D01*
X228838Y206024D01*
M02*
